<?xml version="1.0" encoding="UTF-8"?>
<svg width="12px" height="14px" viewBox="0 0 12 14" version="1.1" xmlns="http://www.w3.org/2000/svg" xmlns:xlink="http://www.w3.org/1999/xlink">
    <!-- Generator: Sketch 46.2 (44496) - http://www.bohemiancoding.com/sketch -->
    <title>bars</title>
    <desc>Created with Sketch.</desc>
    <defs></defs>
    <g id="Symbols" stroke="none" stroke-width="1" fill="none" fill-rule="evenodd">
        <g id="bar" transform="translate(-15.000000, -10.000000)" fill="#FFFFFF">
            <g id="bars" transform="translate(15.000000, 10.000000)">
                <g id="Capa_1">
                    <path d="M11.8364556,0.839231707 C11.9717358,0.698434959 12.011836,0.487211382 11.9387699,0.303361789 C11.8655945,0.119739837 11.6934396,0 11.5026424,0 L0.498451025,0 C0.30738041,0 0.135225513,0.119739837 0.0622687927,0.303361789 C-0.0110432802,0.487211382 0.0293302961,0.698434959 0.164583144,0.839231707 L5.52830979,6.42232927 L5.52830979,11.9874146 L2.42011845,13.5563821 C2.3322369,13.6012276 2.28508428,13.7032398 2.30719818,13.802435 C2.32903872,13.9021423 2.41394077,13.9725407 2.51193622,13.9725407 L9.48915718,13.9725407 C9.58715262,13.9725407 9.671918,13.9021423 9.6936492,13.802435 C9.71598178,13.7032398 9.66885649,13.6012276 9.58072893,13.5563821 L6.47275626,11.9873862 L6.47275626,6.42230081 L11.8364556,0.839231707 Z M10.3625877,0.982987805 L9.12369021,2.27266667 C8.04016401,2.08264228 7.13661048,2.68393089 6.14479271,2.94281707 C5.04142141,3.23084146 3.82102961,2.23038211 2.71418679,2.10281707 L1.63823235,0.982987805 L10.3625877,0.982987805 Z" id="coctail-glass"></path>
                </g>
            </g>
        </g>
    </g>
</svg>