<?xml version="1.0" encoding="UTF-8"?>
<svg width="14px" height="14px" viewBox="0 0 14 14" version="1.1" xmlns="http://www.w3.org/2000/svg" xmlns:xlink="http://www.w3.org/1999/xlink">
    <!-- Generator: Sketch 46.2 (44496) - http://www.bohemiancoding.com/sketch -->
    <title>chinease-kitchen</title>
    <desc>Created with Sketch.</desc>
    <defs></defs>
    <g id="Symbols" stroke="none" stroke-width="1" fill="none" fill-rule="evenodd">
        <g id="china" transform="translate(-21.000000, -9.000000)" fill="#FFFFFF">
            <g id="chinease-kitchen" transform="translate(21.000000, 9.000000)">
                <g id="Layer_1">
                    <path d="M3.12936842,0.0102048193 L3.12936842,2.0492008 C3.39635088,1.81780723 3.68295517,1.6097751 3.98647953,1.42850602 L3.98647953,0.0102048193 L3.12936842,0.0102048193 Z" id="Shape"></path>
                    <path d="M1.41517349,0.0102048193 L1.41517349,4.48579116 C1.63014035,3.93369076 1.92007407,3.42063855 2.2722846,2.96026908 L2.2722846,0.0102048193 L1.41517349,0.0102048193 Z" id="Shape"></path>
                    <path d="M0,7.22073896 C0.102502924,8.98063454 0.8162846,10.6206024 2.03682261,11.8778755 C2.65107602,12.5106305 3.35945419,13.0110602 4.12934503,13.3658112 L4.12934503,13.9897952 L9.84339181,13.9897952 L9.84339181,13.3658112 C10.6132827,13.0110884 11.3216608,12.5106305 11.9359142,11.8778755 C13.156425,10.6205743 13.8702339,8.98063454 13.9727368,7.22073896 L0,7.22073896 Z" id="Shape"></path>
                    <path d="M6.98632749,3.39474699 C5.31989084,3.39474699 3.93934893,4.67940161 3.72869396,6.33781124 L4.74160624,6.33781124 C4.942846,5.24994378 5.872577,4.42481526 6.98635478,4.42481526 C6.99391423,4.42481526 7.00158285,4.42523695 7.0091423,4.42532129 C7.11631189,4.15707229 7.24182066,3.89621687 7.38550487,3.64514458 C7.42556725,3.57511647 7.46737622,3.5063253 7.5100039,3.43809639 C7.33769201,3.40961847 7.16284211,3.39474699 6.98632749,3.39474699 Z" id="Shape"></path>
                    <path d="M9.77069006,2.32731727 C8.43182066,3.21915663 7.56706823,4.70900402 7.43367251,6.33781124 L8.43725146,6.33781124 C8.57976218,4.92836546 9.39722027,3.68174699 10.6024483,3.01640964 C10.3494932,2.75842169 10.0708304,2.52719679 9.77069006,2.32731727 Z" id="Shape"></path>
                    <path d="M11.1748655,3.70890361 C10.1546394,4.19676707 9.44702534,5.19380321 9.30061209,6.33781124 L10.3120507,6.33781124 C10.4546433,5.55780321 10.9687953,4.90798394 11.6760546,4.60597189 C11.5371462,4.28922892 11.3689006,3.98895984 11.1748655,3.70890361 Z" id="Shape"></path>
                    <path d="M5.62360624,6.33781124 L6.57325926,6.33781124 C6.59678363,5.99826908 6.64727096,5.66221285 6.72398441,5.33304418 C6.20295517,5.4331245 5.78047173,5.82518072 5.62360624,6.33781124 Z" id="Shape"></path>
                    <path d="M11.9625497,5.44065863 C11.5934191,5.61343775 11.3143743,5.94041365 11.1941598,6.33778313 L12.1110097,6.33778313 C12.0862846,6.03062651 12.0361248,5.73083534 11.9625497,5.44065863 Z" id="Shape"></path>
                    <path d="M6.98635478,1.48172289 C4.29505263,1.48172289 2.08024172,3.62254217 1.8617271,6.33778313 L2.86574269,6.33778313 C3.08087329,4.19136948 4.84675634,2.51181928 6.98635478,2.51181928 C7.35911501,2.51181928 7.72655361,2.56284337 8.08247563,2.66337349 C8.33488499,2.37238153 8.6134386,2.10593173 8.9145614,1.86852209 C8.31875634,1.61938956 7.66793372,1.48172289 6.98635478,1.48172289 Z" id="Shape"></path>
                </g>
            </g>
        </g>
    </g>
</svg>