<?xml version="1.0" encoding="UTF-8"?>
<svg width="12px" height="12px" viewBox="0 0 12 12" version="1.1" xmlns="http://www.w3.org/2000/svg" xmlns:xlink="http://www.w3.org/1999/xlink">
    <!-- Generator: Sketch 46.2 (44496) - http://www.bohemiancoding.com/sketch -->
    <title>clock</title>
    <desc>Created with Sketch.</desc>
    <defs></defs>
    <g id="Project" stroke="none" stroke-width="1" fill="none" fill-rule="evenodd">
        <g id="Point-card-" transform="translate(-35.000000, -544.000000)" fill="#434242">
            <path d="M42,546 C42,546.155729 41.830637,546 42,546 C41.4131125,546 41.2437495,546.155729 41,546 L41,550 L38,550 C38.1692081,550.304135 38,550.460006 38,551 C38,550.844271 38.1692081,551 38,551 L42,551 L42,546 Z M41,556 C37.6916508,556 35,553.308349 35,550 C35,546.691651 37.6916508,544 41,544 C44.3083492,544 47,546.691651 47,550 C47,553.308349 44.3083492,556 41,556 L41,556 Z" id="clock"></path>
        </g>
    </g>
</svg>