<?xml version="1.0" encoding="UTF-8"?>
<svg width="16px" height="15px" viewBox="0 0 16 15" version="1.1" xmlns="http://www.w3.org/2000/svg" xmlns:xlink="http://www.w3.org/1999/xlink">
    <!-- Generator: Sketch 46.2 (44496) - http://www.bohemiancoding.com/sketch -->
    <title>close</title>
    <desc>Created with Sketch.</desc>
    <defs></defs>
    <g id="Symbols" stroke="none" stroke-width="1" fill="none" fill-rule="evenodd">
        <g id="like-active" transform="translate(-4.000000, -4.000000)" fill="#D95E5B">
            <g id="close" transform="translate(4.000000, 4.000000)">
                <path d="M0.951608793,2.53388896 C0.359307101,1.95970387 0.382775504,1.00601533 0.964858583,0.441736298 L0.964858583,0.441736298 C1.56447793,-0.139542624 2.52530422,-0.150544265 3.12302254,0.428891776 L15.2466154,12.1816629 C15.838917,12.755848 15.8154486,13.7095365 15.2333656,14.2738156 L15.2333656,14.2738156 C14.6337462,14.8550945 13.6729199,14.8660961 13.0752016,14.2866601" id="Rectangle-3"></path>
                <path d="M13.0837487,0.420606093 C13.6760504,-0.153578996 14.6598296,-0.130828416 15.2419127,0.433450615 L15.2419127,0.433450615 C15.841532,1.01472954 15.8528808,1.94616724 15.2551625,2.52560328 L3.13156965,14.2783744 C2.53926796,14.8525595 1.55548877,14.8298089 0.973405695,14.2655299 L0.973405695,14.2655299 C0.373786346,13.684251 0.362437583,12.7528133 0.960155905,12.1733772" id="Rectangle-3"></path>
            </g>
        </g>
    </g>
</svg>