<?xml version="1.0" encoding="UTF-8"?>
<svg width="16px" height="14px" viewBox="0 0 16 14" version="1.1" xmlns="http://www.w3.org/2000/svg" xmlns:xlink="http://www.w3.org/1999/xlink">
    <!-- Generator: Sketch 46.2 (44496) - http://www.bohemiancoding.com/sketch -->
    <title>cloth</title>
    <desc>Created with Sketch.</desc>
    <defs></defs>
    <g id="Symbols" stroke="none" stroke-width="1" fill="none" fill-rule="evenodd">
        <g id="d-clothes" transform="translate(-24.000000, -9.000000)" fill="#D95E5B">
            <g id="clothes">
                <g id="cloth" transform="translate(24.000000, 9.000000)">
                    <path d="M7.98718919,1.36060465 C8.67913514,1.36060465 9.27681081,0.917705426 9.49151351,0.266162791 C9.08189189,0.379356589 8.55978378,0.447674419 7.98718919,0.447674419 C7.41464865,0.447674419 6.89254054,0.379356589 6.48297297,0.266162791 C6.69756757,0.917651163 7.29518919,1.36060465 7.98718919,1.36060465 Z" id="Shape"></path>
                    <path d="M15.9544865,2.1618062 C15.9216216,2.06923256 15.8532432,1.99310078 15.7641622,1.95164341 L12.7185946,0.540248062 C12.0707568,0.319937984 11.4107568,0.145914729 10.7443243,0.0187209302 C10.7208649,0.0141085271 10.6975135,0.0118837209 10.6744865,0.0118837209 C10.5095135,0.0118837209 10.3617838,0.126217054 10.325027,0.293891473 C10.0816757,1.36939535 9.1332973,2.1746124 7.98713514,2.1746124 C6.84102703,2.1746124 5.89259459,1.36944961 5.6492973,0.293891473 C5.61210811,0.126217054 5.46464865,0.0118837209 5.29978378,0.0118837209 C5.27675676,0.0118837209 5.25340541,0.0141085271 5.22994595,0.0187209302 C4.56356757,0.145914729 3.90356757,0.319937984 3.2547027,0.540248062 L0.210216216,1.95158915 C0.120594595,1.99304651 0.0517297297,2.06917829 0.0204324324,2.16175194 C-0.0119459459,2.25541085 -0.00610810811,2.35650388 0.0395135135,2.44484496 L1.36167568,5.06425581 C1.42356757,5.18857364 1.54945946,5.26318605 1.68264865,5.26318605 C1.71702703,5.26318605 1.75189189,5.2581938 1.78627027,5.24782946 L3.25475676,4.81089922 L3.25475676,13.599969 C3.25475676,13.7995504 3.41697297,13.9623411 3.61632432,13.9623411 L12.3581081,13.9623411 C12.5569189,13.9623411 12.7186486,13.7994961 12.7186486,13.599969 L12.7186486,4.81100775 L14.1881622,5.24793798 C14.2225405,5.25830233 14.2573514,5.26329457 14.2916757,5.26329457 C14.4245946,5.26329457 14.55,5.18868217 14.6127568,5.06436434 L15.9354054,2.44495349 C15.9799459,2.35655814 15.9863243,2.25546512 15.9544865,2.1618062 Z" id="Shape"></path>
                </g>
            </g>
        </g>
    </g>
</svg>