<?xml version="1.0" encoding="UTF-8"?>
<svg width="12px" height="12px" viewBox="0 0 12 12" version="1.1" xmlns="http://www.w3.org/2000/svg" xmlns:xlink="http://www.w3.org/1999/xlink">
    <!-- Generator: Sketch 46.2 (44496) - http://www.bohemiancoding.com/sketch -->
    <title>distance</title>
    <desc>Created with Sketch.</desc>
    <defs></defs>
    <g id="Project" stroke="none" stroke-width="1" fill="none" fill-rule="evenodd" fill-opacity="0.7">
        <g id="Point-card-" transform="translate(-35.000000, -700.000000)" fill="#000000">
            <g id="distance" transform="translate(35.000000, 700.000000)">
                <g id="Page-1">
                    <path d="M5.74426667,1.998 L6.24373333,1.998 L6.24373333,0.249733333 L5.74426667,0.249733333 L5.74426667,1.998 Z M0.249733333,6.2438 L1.99806667,6.2438 L1.99806667,5.74426667 L0.249733333,5.74426667 L0.249733333,6.2438 Z M5.74426667,11.7382667 L6.24373333,11.7382667 L6.24373333,9.99 L5.74426667,9.99 L5.74426667,11.7382667 Z M9.99,6.2438 L11.7382667,6.2438 L11.7382667,5.74426667 L9.99,5.74426667 L9.99,6.2438 Z M9.163,3.66046667 L9.46953333,3.1044 L8.86646667,3.3044 L4.9546,4.60186667 L4.861,4.63286667 L4.81413333,4.71793333 L2.825,8.32753333 L2.51853333,8.88366667 L3.12153333,8.68366667 L7.03346667,7.3862 L7.12706667,7.35513333 L7.17386667,7.27006667 L9.163,3.66046667 Z M1.75566667,1.7556 C2.84033333,0.670933333 4.33886667,0 5.994,0 C7.64913333,0 9.14766667,0.670933333 10.2324,1.7556 C11.3171333,2.84033333 11.988,4.33886667 11.988,5.994 C11.988,7.64913333 11.3171333,9.14766667 10.2324,10.2324 C9.14766667,11.3171333 7.64913333,11.988 5.994,11.988 C4.33886667,11.988 2.84033333,11.3171333 1.75566667,10.2324 C0.670866667,9.14766667 0,7.64913333 0,5.994 C0,4.33886667 0.670866667,2.84033333 1.75566667,1.7556 L1.75566667,1.7556 Z" id="Fill-1"></path>
                    <path d="M6.44049333,5.59903333 L6.44049333,5.59903333 L6.45222667,5.61303333 C6.55742667,5.73956667 6.60142667,5.8967 6.58749333,6.0483 C6.57409333,6.19463333 6.50682667,6.33603333 6.38882667,6.4403 L6.38902667,6.4405 L6.37502667,6.45216667 C6.24842667,6.55743333 6.09136,6.60143333 5.93969333,6.5875 C5.79336,6.57403333 5.65196,6.50676667 5.54769333,6.38883333 L5.54749333,6.38896667 L5.53589333,6.37496667 C5.43062667,6.24843333 5.38656,6.0913 5.40049333,5.9397 C5.41402667,5.79336667 5.48122667,5.65196667 5.59922667,5.5477 L5.59902667,5.5475 L5.59909333,5.5475 L5.61302667,5.53583333 C5.73956,5.43056667 5.89669333,5.38656667 6.04829333,5.4005 C6.19462667,5.41396667 6.33609333,5.48116667 6.44029333,5.59916667 L6.44049333,5.59903333 Z" id="Fill-3"></path>
                </g>
            </g>
        </g>
    </g>
</svg>