<?xml version="1.0" encoding="UTF-8"?>
<svg width="15px" height="11px" viewBox="0 0 15 11" version="1.1" xmlns="http://www.w3.org/2000/svg" xmlns:xlink="http://www.w3.org/1999/xlink">
    <!-- Generator: Sketch 46.2 (44496) - http://www.bohemiancoding.com/sketch -->
    <title>entertainment</title>
    <desc>Created with Sketch.</desc>
    <defs></defs>
    <g id="Symbols" stroke="none" stroke-width="1" fill="none" fill-rule="evenodd">
        <g id="happy-d" transform="translate(-21.000000, -11.000000)" fill="#D95E5B">
            <path d="M35.6761482,13.9976813 L35.6761482,11 L31.0287108,11 L31.0287108,12.4988407 L29.561096,12.4988407 L29.561096,11 L21,11 L21,13.9976813 C22.3508936,13.9976813 23.4460151,15.1161034 23.4460151,16.4957394 C23.4460151,17.8753754 22.3508936,18.9937974 21,18.9937974 L21,21.9914787 L29.561096,21.9914787 L29.561096,20.4926381 L31.0287108,20.4926381 L31.0287108,21.9914787 L35.6761482,21.9914787 L35.6761482,18.9937974 C34.3252546,18.9937974 33.2301331,17.8753754 33.2301331,16.4957394 C33.2301331,15.1161034 34.3252546,13.9976813 35.6761482,13.9976813 Z M31.0287108,18.8272856 L29.561096,18.8272856 L29.561096,17.3284449 L31.0287108,17.3284449 L31.0287108,18.8272856 Z M31.0287108,15.6630338 L29.561096,15.6630338 L29.561096,14.1641932 L31.0287108,14.1641932 L31.0287108,15.6630338 Z" id="entertainment"></path>
        </g>
    </g>
</svg>