<?xml version="1.0" encoding="UTF-8"?>
<svg width="16px" height="14px" viewBox="0 0 16 14" version="1.1" xmlns="http://www.w3.org/2000/svg" xmlns:xlink="http://www.w3.org/1999/xlink">
    <!-- Generator: Sketch 46.2 (44496) - http://www.bohemiancoding.com/sketch -->
    <title>fastfood</title>
    <desc>Created with Sketch.</desc>
    <defs></defs>
    <g id="Symbols" stroke="none" stroke-width="1" fill="none" fill-rule="evenodd">
        <g id="fastfood" transform="translate(-13.000000, -9.000000)" fill="#FFFFFF">
            <g transform="translate(13.000000, 9.000000)" id="Shape">
                <path d="M1.43326316,10.3331011 C0.298578947,10.3331011 0.298578947,11.0173184 0.298578947,11.3725094 C0.298578947,13.7702846 2.81189474,13.9904045 5.91226316,13.9904045 L10.0520526,13.9904045 C13.1524211,13.9904045 15.6657368,13.5719775 15.6657368,11.3725094 C15.6657368,11.0173184 15.5570526,10.3331011 14.5417895,10.3331011 L1.43326316,10.3331011 Z"></path>
                <path d="M15.9644211,8.49585019 C15.9644211,8.88853184 15.6419474,9.20979775 15.2477895,9.20979775 L0.716631579,9.20979775 C0.322473684,9.20979775 0,8.88853184 0,8.49585019 L0,7.96049438 C0,7.56781273 0.322473684,7.24654682 0.716631579,7.24654682 L15.2477895,7.24654682 C15.6419474,7.24654682 15.9644211,7.56781273 15.9644211,7.96049438 L15.9644211,8.49585019 L15.9644211,8.49585019 Z"></path>
                <path d="M8.26052632,0.0265842697 L7.70389474,0.0265842697 C4.60357895,0.0265842697 0.298631579,1.93556554 0.298631579,5.0243221 C0.298631579,5.37951311 0.407315789,6.0636779 1.42252632,6.0636779 L14.5311579,6.0636779 C15.6658421,6.0636779 15.6658421,5.37951311 15.6658421,5.0243221 C15.6657895,1.93556554 11.3608421,0.0265842697 8.26052632,0.0265842697 Z M4.61857895,3.98921348 C4.32231579,4.48146816 3.81205263,4.71910112 3.47884211,4.52005993 C3.14563158,4.32096629 3.11568421,3.76065169 3.41194737,3.268397 C3.70821053,2.77619476 4.21847368,2.53850936 4.55168421,2.737603 C4.88484211,2.93664419 4.91484211,3.49701124 4.61857895,3.98921348 Z M7.98221053,4.71401498 C7.61115789,4.71401498 7.31031579,4.2281573 7.31031579,3.62883146 C7.31031579,3.02950562 7.61115789,2.54364794 7.98221053,2.54364794 C8.35326316,2.54364794 8.65410526,3.02950562 8.65410526,3.62883146 C8.65410526,4.2281573 8.35326316,4.71401498 7.98221053,4.71401498 Z M12.4855789,4.52005993 C12.1523684,4.71910112 11.6421053,4.48146816 11.3458421,3.98921348 C11.0495789,3.49701124 11.0795263,2.93664419 11.4127368,2.737603 C11.7459474,2.53850936 12.2562105,2.77619476 12.5524737,3.268397 C12.8487895,3.76065169 12.8188421,4.32096629 12.4855789,4.52005993 Z"></path>
            </g>
        </g>
    </g>
</svg>