<?xml version="1.0" encoding="UTF-8"?>
<svg width="13px" height="21px" viewBox="0 0 13 21" version="1.1" xmlns="http://www.w3.org/2000/svg" xmlns:xlink="http://www.w3.org/1999/xlink">
    <!-- Generator: Sketch 46.2 (44496) - http://www.bohemiancoding.com/sketch -->
    <title>fire</title>
    <desc>Created with Sketch.</desc>
    <defs>
        <polygon id="path-1" points="10.8002951 1.1477998e-14 0.243864185 0 0.243864185 20.8422846 10.8002951 20.8422846 10.8002951 0"></polygon>
    </defs>
    <g id="Page-1" stroke="none" stroke-width="1" fill="none" fill-rule="evenodd">
        <g id="Artboard-Copy-7" transform="translate(-506.000000, -265.000000)">
            <g id="fire" transform="translate(506.000000, 265.000000)">
                <g id="Group-3" transform="translate(2.166667, 0.000108)">
                    <mask id="mask-2" fill="white">
                        <use xlink:href="#path-1"></use>
                    </mask>
                    <g id="Clip-2"></g>
                    <path d="M10.7614,13.5604 C10.66715,12.5960154 10.3879208,11.5885538 9.95431667,10.6473231 C9.5597125,9.78901538 9.04215,8.96974615 8.41815,8.21159231 C8.24237917,7.99701538 8.0647125,7.79186154 7.97262917,7.69843846 L7.760025,7.4669 C7.70829583,7.40820769 7.66469167,7.36082308 7.62135833,7.31882308 L7.55798333,7.25447692 C7.48919167,7.18609231 7.41715,7.11366923 7.35810833,7.04205385 C7.353775,7.03586154 7.34835833,7.03047692 7.3432125,7.02536154 C7.31450417,6.99359231 7.28281667,6.96209231 7.2489625,6.92628462 C7.2034625,6.88132308 7.15281667,6.83070769 7.10731667,6.7739 C7.10081667,6.76663077 7.09567083,6.76016923 7.08917083,6.7529 C6.765525,6.3994 6.49360833,6.07874615 6.2577125,5.77155385 C5.98173333,5.41105385 5.78700417,5.11113077 5.62504583,4.7999 C5.4379,4.44559231 5.29706667,4.05116923 5.20823333,3.62416923 C5.12373333,3.23701538 5.07498333,2.79332308 5.06117083,2.30332308 C5.04844167,1.86878462 5.07498333,1.4504 5.1023375,1.10228462 C5.12265,0.869669231 5.14594167,0.663707692 5.16706667,0.482784615 C5.18494167,0.3409 5.1299625,0.199823077 5.02217083,0.106130769 C4.91410833,0.0127076923 4.7659625,-0.0220230769 4.62756667,0.0137846154 C4.42119167,0.0673615385 4.2085875,0.138976923 3.99923333,0.225130769 C3.55912917,0.4039 3.12525417,0.652130769 2.7103375,0.964438462 C2.18167083,1.3629 1.71800417,1.85613077 1.33287917,2.42824615 C0.861358333,3.12770769 0.526608333,3.95020769 0.3670875,4.80420769 C0.185358333,5.74436154 0.205129167,6.80432308 0.42315,7.7889 C0.630608333,8.74063077 1.032525,9.71336154 1.5858375,10.6042462 C1.87915,11.0678615 2.1594625,11.4560923 2.43760833,11.7810538 C2.5202125,11.8830923 2.7477125,12.1480154 2.75069167,12.1512462 L2.84169167,12.2540923 C2.9053375,12.3257077 2.9508375,12.3803615 2.99715,12.4347462 C3.03967083,12.4856308 3.07542083,12.5276308 3.11469167,12.5693615 L3.12092083,12.5771692 C3.55479583,13.0914 3.86056667,13.4699385 4.11244167,13.8043231 C4.3905875,14.1731692 4.6359625,14.5301692 4.86129583,14.8960538 C5.101525,15.2872462 5.27269167,15.6280923 5.3997125,15.9697462 C5.54460833,16.3579769 5.63994167,16.7785154 5.683275,17.2224769 C5.72335833,17.6125923 5.72335833,18.0500923 5.68435833,18.5578615 C5.64400417,19.0185154 5.57223333,19.4382462 5.5150875,19.7454385 C5.4728375,19.9546308 5.4314,20.1492846 5.39348333,20.3175538 C5.36179583,20.4594385 5.4029625,20.6077846 5.50560833,20.7117077 C5.58794167,20.7959769 5.7003375,20.8422846 5.816525,20.8422846 C5.84415,20.8422846 5.87150417,20.8401308 5.89912917,20.8350154 C6.10225417,20.7949 6.29806667,20.7434769 6.492525,20.6780538 C6.94535833,20.5321308 7.3919625,20.3186308 7.81825417,20.0461692 C8.37265,19.6980538 8.87179583,19.2522077 9.30350417,18.7210154 C9.82729583,18.0770154 10.2367958,17.3054 10.4862333,16.4872077 C10.7668167,15.5774769 10.8618792,14.5646308 10.7614,13.5604" id="Fill-1" fill-opacity="0.7" fill="#000000" mask="url(#mask-2)"></path>
                </g>
                <path d="M4.43278333,16.1981346 C4.25295,15.8058654 4.01597083,15.4313654 3.73240833,15.0864808 C3.6606375,14.99925 3.57478333,14.8993654 3.53253333,14.8562885 L3.43205417,14.7467115 C3.40659583,14.7184423 3.3876375,14.6985192 3.36759583,14.6775192 L3.33997083,14.6500577 C3.30828333,14.6185577 3.27659583,14.5870577 3.25005417,14.5550192 C3.2446375,14.5490962 3.240575,14.5434423 3.23515833,14.5385962 L3.19724167,14.4995577 C3.17611667,14.4774808 3.15390833,14.4554038 3.1357625,14.43225 C3.13061667,14.4271346 3.12628333,14.4206731 3.12086667,14.4155577 C2.9781375,14.2599423 2.85545,14.1148269 2.74765833,13.9748269 C2.655575,13.8539423 2.54967917,13.70775 2.4565125,13.5279038 C2.37092917,13.3655577 2.30647083,13.1859808 2.26611667,12.9905192 C2.2282,12.8149808 2.20599167,12.6119808 2.19949167,12.3890577 C2.19434583,12.2038269 2.20490833,12.0282885 2.21330417,11.9125192 C2.22386667,11.7601346 2.151825,11.6128654 2.025075,11.5261731 C1.89805417,11.4392115 1.73392917,11.4276346 1.59445,11.4927885 C1.433575,11.5687115 1.27703333,11.6642885 1.1256375,11.7779038 C0.884595833,11.9599038 0.672804167,12.1849808 0.4983875,12.4455962 C0.346991667,12.6677115 0.149283333,13.0379038 0.0572,13.5289808 C-0.0264875,13.9592115 -0.0178208333,14.4438269 0.081575,14.8915577 C0.1766375,15.3274423 0.359720833,15.7722115 0.6137625,16.1803654 C0.7470125,16.3917115 0.874845833,16.5683269 0.997804167,16.7123654 C1.0346375,16.7565192 1.11290833,16.8469808 1.14784583,16.8879038 L1.1467625,16.8879038 L1.18603333,16.9323269 C1.21555417,16.9659808 1.2377625,16.9910192 1.2588875,17.0163269 C1.27703333,17.0384038 1.29274167,17.05725 1.30655417,17.0720577 L1.3141375,17.0790577 C1.4473875,17.2381731 1.6196375,17.4454808 1.7667,17.6409423 C1.89480417,17.8092115 2.00584583,17.9723654 2.10849167,18.1395577 C2.2176375,18.3161731 2.29590833,18.4717885 2.35386667,18.6271346 C2.41967917,18.8053654 2.4630125,18.9973269 2.48305417,19.2016731 C2.5020125,19.3793654 2.5020125,19.5794038 2.4841375,19.8085192 C2.47249167,19.9442115 2.45245,20.0871731 2.42590833,20.2470962 C2.39828333,20.4005577 2.45867917,20.55725 2.58028333,20.65525 C2.65855417,20.7171731 2.75497083,20.74975 2.8522,20.74975 C2.90717917,20.74975 2.96324167,20.73925 3.01524167,20.71825 C3.16636667,20.6571346 3.31559583,20.5804038 3.45642917,20.4899423 C3.70911667,20.3319038 3.9377,20.1283654 4.13567917,19.8841731 C4.37455417,19.5909808 4.5608875,19.2385577 4.67517917,18.8651346 C4.80192917,18.4550962 4.84661667,17.9807115 4.80192917,17.5284038 C4.75859583,17.0879423 4.6307625,16.6283654 4.43278333,16.1981346" id="Fill-4" fill-opacity="0.7" fill="#000000"></path>
            </g>
        </g>
    </g>
</svg>