<?xml version="1.0" encoding="UTF-8"?>
<svg width="16px" height="16px" viewBox="0 0 16 16" version="1.1" xmlns="http://www.w3.org/2000/svg" xmlns:xlink="http://www.w3.org/1999/xlink">
    <!-- Generator: Sketch 46.2 (44496) - http://www.bohemiancoding.com/sketch -->
    <title>fooddrink</title>
    <desc>Created with Sketch.</desc>
    <defs></defs>
    <g id="Page-1" stroke="none" stroke-width="1" fill="none" fill-rule="evenodd">
        <g id="Artboard-Copy-5" transform="translate(-75.000000, -393.000000)" fill="#F2716E">
            <g id="fooddrink" transform="translate(75.000000, 393.000000)">
                <path d="M3.29674976,0.00287575929 L3.29649104,3.10006851 C3.29674976,3.16167948 3.27294776,3.22045825 3.22913828,3.26464037 C3.18537191,3.30886606 3.12724674,3.3331793 3.0652408,3.3331793 C2.93851238,3.3331793 2.83480982,3.22838838 2.83480982,3.09980708 L2.83480982,0 L1.63837114,0 L1.63837114,3.09954565 C1.63837114,3.22838838 1.53440986,3.33291787 1.40716401,3.3331793 C1.27961633,3.3331793 1.1764312,3.22838838 1.1764312,3.09980708 L1.17668992,0.000261432662 C0.399373447,0.0125487678 0.161180949,0.197425232 0.16208646,0.778285036 L0,5.29252996 C0,5.98837657 0.563400288,6.55494472 1.25628864,6.55494472 L1.51418678,6.55494472 C1.5626963,6.55494472 1.60943791,6.5740293 1.64522715,6.60779769 C1.76341789,6.72108517 1.7502233,6.87297755 1.60146079,7.88053903 C1.49090222,8.63250651 1.33903509,9.66150547 1.33903509,10.4773497 C1.33903509,13.7473494 1.9602156,15.2 2.19595029,15.2 C2.28930415,15.2 2.5223223,14.9432731 2.73735959,13.9716151 C2.94127204,13.0505878 3.05364163,11.8099155 3.05338291,10.4773932 C3.05338291,9.77592584 2.9030681,8.90988657 2.78216083,8.21443211 C2.58329337,7.07523929 2.5289196,6.67533446 2.81079222,6.56753706 C2.83230888,6.55930193 2.85429986,6.55498829 2.87654956,6.55498829 L3.13612937,6.55498829 C3.82914708,6.55498829 4.39319416,5.98589296 4.39319416,5.28612486 L4.23033155,0.784472276 C4.23028843,0.221215605 4.00257399,0.0286268765 3.29674976,0.00287575929 Z" id="Shape"></path>
                <path d="M6.62155172,0.118681319 L6.62155172,4.39120879 C6.62155172,6.58681319 8.33232759,8.40263736 10.5318966,8.64 L10.5318966,14.3604396 L8.33232759,14.3604396 L8.33232759,15.3098901 L13.7090517,15.3098901 L13.7090517,14.3604396 L11.5094828,14.3604396 L11.5094828,8.66373626 C13.6968319,8.41450549 15.4198276,6.58681319 15.4198276,4.39120879 L15.4198276,0.118681319 L6.62155172,0.118681319 Z M14.4422414,4.39120879 C14.4422414,6.23076923 12.9147629,7.71428571 11.0206897,7.71428571 C9.12661638,7.71428571 7.59913793,6.23076923 7.59913793,4.39120879 L7.59913793,1.06813187 L14.4422414,1.06813187 L14.4422414,4.39120879 Z M11.0206897,7.47692308 C12.7803448,7.47692308 14.1978448,6.10021978 14.1978448,4.39120879 L14.1978448,3.44175824 L7.84353448,3.44175824 L7.84353448,4.39120879 C7.84353448,6.10021978 9.26103448,7.47692308 11.0206897,7.47692308 Z" id="Shape"></path>
            </g>
        </g>
    </g>
</svg>