<?xml version="1.0" encoding="UTF-8"?>
<svg width="14px" height="15px" viewBox="0 0 14 15" version="1.1" xmlns="http://www.w3.org/2000/svg" xmlns:xlink="http://www.w3.org/1999/xlink">
    <!-- Generator: Sketch 46.2 (44496) - http://www.bohemiancoding.com/sketch -->
    <title>grossery</title>
    <desc>Created with Sketch.</desc>
    <defs></defs>
    <g id="Symbols" stroke="none" stroke-width="1" fill="none" fill-rule="evenodd">
        <g id="d-eat" transform="translate(-25.000000, -9.000000)" fill="#D95E5B">
            <g id="eat">
                <path d="M33.9471667,11.4150879 C33.4549792,11.4150879 32.9604292,11.4900586 32.4869375,11.6331738 L32.4869375,11.562832 C32.4869375,10.6890234 33.19455,9.97825195 34.064475,9.97825195 C34.3333042,9.97825195 34.5514417,9.75914063 34.5514417,9.48911133 C34.5514417,9.21908203 34.3333333,9 34.0645042,9 C32.6575333,9 31.5130333,10.1495801 31.5130333,11.5628613 L31.5130333,11.6332031 C31.0395125,11.4900879 30.5449625,11.4151172 30.0528042,11.4151172 C27.3517667,11.4151172 25.0202708,13.4321484 25.0202708,16.9891406 C25.0203,20.7238477 28.2818917,24 32,24 C35.7181083,24 38.9797,20.7238477 38.9797,16.9891406 C38.9797,13.4204883 36.6373542,11.4150879 33.9471667,11.4150879 Z M34.2569458,14.5877637 C33.975575,14.2869727 33.4744333,14.4505078 33.4193375,14.8565332 C33.2741167,15.9278027 32.4543,16.8633691 32,17.3085352 C31.5453792,16.8630469 30.7258542,15.9277441 30.5806625,14.8565332 C30.5253625,14.449043 30.0236375,14.2885547 29.7430542,14.5877637 C28.8215917,15.5743652 27.4175083,15.7928906 26.2601167,15.1801465 C26.848875,13.3519629 28.4038667,12.3933691 30.0528333,12.3933691 C30.6498167,12.3933691 31.251525,12.5286914 31.7926833,12.7844238 C31.9163792,12.8428711 32.0644875,12.847998 32.1990625,12.7872656 C32.7540167,12.5366895 33.3082708,12.3933984 33.9471958,12.3933984 C35.5732083,12.3933984 37.1441542,13.3291406 37.74,15.1800586 C36.5833667,15.7925684 35.1789625,15.5749219 34.2569458,14.5877637 Z" id="grossery"></path>
            </g>
        </g>
    </g>
</svg>