<?xml version="1.0" encoding="UTF-8"?>
<svg width="7px" height="16px" viewBox="0 0 7 16" version="1.1" xmlns="http://www.w3.org/2000/svg" xmlns:xlink="http://www.w3.org/1999/xlink">
    <!-- Generator: Sketch 46.2 (44496) - http://www.bohemiancoding.com/sketch -->
    <title>info</title>
    <desc>Created with Sketch.</desc>
    <defs></defs>
    <g id="Page-1" stroke="none" stroke-width="1" fill="none" fill-rule="evenodd">
        <g id="Artboard-Copy-5" transform="translate(-79.000000, -633.000000)" fill="#434242">
            <path d="M81.2127388,648.216978 C80.4087117,648.216978 79.8188636,647.720714 80.382082,645.536127 L81.3055623,641.662835 C81.4661015,641.042363 81.4927312,640.794326 81.3055623,640.794326 C81.0634222,640.794326 80.0193473,641.222684 79.4019184,641.644955 L79,640.974838 C80.9570936,639.312002 83.2092063,638.337165 84.1743431,638.337165 C84.9783702,638.337165 85.1128502,639.304584 84.7107416,640.794326 L83.653542,644.866009 C83.4656123,645.585962 83.5464525,645.834189 83.7338116,645.834189 C83.9751909,645.834189 84.7664737,645.535366 85.5436809,644.914323 L86,645.535366 C84.0955952,647.470965 82.0173365,648.216978 81.2127388,648.216978 Z M84.3504796,633 C85.3698269,633 85.8788348,633.694655 85.8788348,634.489742 C85.8788348,635.481699 84.9939676,636.400043 83.8414717,636.400043 C82.875574,636.400043 82.3123556,635.829407 82.3391756,634.886525 C82.3391756,634.092199 83.0092932,633 84.3504796,633 L84.3504796,633 Z" id="info"></path>
        </g>
    </g>
</svg>