<?xml version="1.0" encoding="UTF-8"?>
<svg width="16px" height="17px" viewBox="0 0 16 17" version="1.1" xmlns="http://www.w3.org/2000/svg" xmlns:xlink="http://www.w3.org/1999/xlink">
    <!-- Generator: Sketch 46.2 (44496) - http://www.bohemiancoding.com/sketch -->
    <title>italian-kitchen</title>
    <desc>Created with Sketch.</desc>
    <defs></defs>
    <g id="Symbols" stroke="none" stroke-width="1" fill="none" fill-rule="evenodd">
        <g id="italian" transform="translate(-19.000000, -9.000000)" fill="#FFFFFF">
            <g id="italian-kitchen" transform="translate(19.000000, 9.000000)">
                <g id="Capa_1">
                    <g id="Group">
                        <path d="M13.8168889,7.73947368 C13.6613333,7.45047368 13.5511111,7.07736842 13.5173333,6.65863158 C13.4408889,5.70215789 13.7875556,4.896 14.2915556,4.85484211 C14.3706667,4.84857895 14.4471111,4.86826316 14.5235556,4.89689474 L15.7431111,0 L2.576,4.77252632 C2.8,5.39794737 3.05333333,6.018 3.37333333,6.62463158 C5.07555556,9.84568421 7.848,12.1147368 11.0115556,13.2582105 C11.0115556,13.2582105 11.9697778,13.6563684 12.4017778,13.4246316 L13.8168889,7.73947368 Z M13.3786667,4.92821053 C13.4222222,5.474 13.0195556,5.95089474 12.4764444,5.99473684 C11.9342222,6.03768421 11.4604444,5.63326316 11.4168889,5.08657895 C11.3733333,4.54168421 11.7777778,4.06478947 12.32,4.02005263 C12.8613333,3.97621053 13.336,4.38331579 13.3786667,4.92821053 Z M6.62311111,5.89631579 C6.56088889,5.11789474 7.13688889,4.43878947 7.90933333,4.37615789 C8.68355556,4.31352632 9.35911111,4.89331579 9.42044444,5.67084211 C9.48266667,6.44836842 8.90666667,7.12926316 8.13422222,7.19189474 C7.36177778,7.25452632 6.68622222,6.67473684 6.62311111,5.89631579 Z M9.24355556,9.16657895 C9.20266667,8.66105263 9.57866667,8.21726316 10.0808889,8.17610526 C10.584,8.13673684 11.0257778,8.51431579 11.0648889,9.01984211 C11.1057778,9.52626316 10.7306667,9.97094737 10.2284444,10.0112105 C9.72355556,10.0514737 9.28355556,9.67389474 9.24355556,9.16657895 Z" id="Shape"></path>
                        <path d="M4.10577778,11.7121053 C1.14311111,8.72994737 0.341333333,5.57063158 0.290666667,5.36305263 L1.92977778,4.96131579 L1.11022222,5.16173684 L1.92977778,4.95952632 C2.00088889,5.25031579 3.78133333,12.0905789 12.2737778,14.5045789 L11.8142222,16.1383684 C8.31644444,15.1443158 5.84,13.4595263 4.10577778,11.7121053 Z" id="Shape"></path>
                    </g>
                </g>
            </g>
        </g>
    </g>
</svg>