<?xml version="1.0" encoding="UTF-8"?>
<svg width="14px" height="13px" viewBox="0 0 14 13" version="1.1" xmlns="http://www.w3.org/2000/svg" xmlns:xlink="http://www.w3.org/1999/xlink">
    <!-- Generator: Sketch 46.2 (44496) - http://www.bohemiancoding.com/sketch -->
    <title>japan-kitchen</title>
    <desc>Created with Sketch.</desc>
    <defs></defs>
    <g id="Symbols" stroke="none" stroke-width="1" fill="none" fill-rule="evenodd">
        <g id="japan" transform="translate(-21.000000, -10.000000)" fill="#FFFFFF">
            <g id="japan-kitchen" transform="translate(21.000000, 10.000000)">
                <path d="M13.9825482,4.05979417 C14.0981823,1.8799601 9.42571643,0.0764776089 6.99246756,0.0764776089 C4.55943087,0.0764776089 -0.113247146,1.8799601 0.00238694218,4.05979417 L0,4.05979417 L0,8.78819074 L0.00228085587,8.78819074 C0.00392519381,8.82094818 0.00652430864,8.85353991 0.0102373298,8.88602115 C0.270891416,11.1083902 4.52389196,12.9651795 6.99246756,12.9651795 C9.46114926,12.9651795 13.7141498,11.1085559 13.9746978,8.88602115 C13.9785169,8.85353991 13.9810099,8.82094818 13.9826543,8.78819074 L13.9849351,8.78819074 L13.9849351,4.05979417 L13.9825482,4.05979417 Z M12.7320027,4.13624663 C12.5107066,5.96425578 9.00821372,7.50534725 6.97888852,7.51396473 C4.94945723,7.52241648 1.45889906,6.010989 1.25176552,4.18480278 C1.04468503,2.35850607 4.97555446,0.815702147 7.00498575,0.807029434 C9.03431095,0.798467201 12.9532987,2.3084032 12.7320027,4.13624663 Z" id="Shape"></path>
                <path d="M7.20811216,2.23086417 C6.18671308,2.23522815 4.20846844,3.01173983 4.31269825,3.93077127 C4.41692806,4.8498027 6.17355838,5.61051568 7.19495746,5.60620694 C8.21625046,5.60189821 9.97892769,4.82632561 10.0903714,3.90635509 C10.201762,2.98649505 8.22940516,2.22655544 7.20811216,2.23086417 Z" id="Shape"></path>
            </g>
        </g>
    </g>
</svg>