<?xml version="1.0" encoding="UTF-8"?>
<svg width="24px" height="23px" viewBox="0 0 24 23" version="1.1" xmlns="http://www.w3.org/2000/svg" xmlns:xlink="http://www.w3.org/1999/xlink">
    <!-- Generator: Sketch 46.2 (44496) - http://www.bohemiancoding.com/sketch -->
    <title>like</title>
    <desc>Created with Sketch.</desc>
    <defs></defs>
    <g id="Symbols" stroke="none" stroke-width="1" fill="none" fill-rule="evenodd" fill-opacity="0.8">
        <g id="Icons" transform="translate(-542.000000, -800.000000)" fill="#000000">
            <g id="like" transform="translate(542.000000, 800.000000)">
                <g>
                    <path d="M3.91771875,7.37168699 L0.7835625,7.37168699 C0.3526875,7.37168699 0,7.72164228 0,8.15312602 L0,22.2186545 C0,22.6499045 0.351140625,23 0.7835625,23 L3.91771875,23 C4.35014062,23 4.70128125,22.6499045 4.70128125,22.2186545 L4.70128125,8.15312602 C4.70128125,7.72164228 4.34854688,7.37168699 3.91771875,7.37168699" id="Fill-1"></path>
                    <path d="M16.0090312,7.37168699 L16.8343125,5.12628862 C17.40375,3.57547154 17.0350781,1.2075935 15.4551094,0.36570935 C14.9406094,0.0916260163 14.2218281,-0.0460934959 13.6423125,0.0994329268 C13.3100156,0.182831301 13.0178906,0.40226626 12.8437969,0.696264228 C12.6435937,1.03443902 12.6642656,1.42908537 12.5929687,1.80400407 C12.4121719,2.75495122 11.9615625,3.65910366 11.263875,4.3377439 C10.047375,5.52098171 6.26835937,8.93451829 6.26835937,8.93451829 L6.26835937,21.4372622 L19.3274062,21.4372622 C21.0895312,21.4382907 22.2443437,19.4757642 21.3752344,17.9428984 C22.4112187,17.2811809 22.7655469,15.8873902 22.1587969,14.8172358 C23.1948281,14.1555183 23.5491094,12.7617276 22.9423125,11.6915264 C24.7299375,10.5498476 24.1323281,7.72397967 22.0437187,7.37168699 C21.9174844,7.35036992 16.0090312,7.37168699 16.0090312,7.37168699" id="Fill-3"></path>
                </g>
            </g>
        </g>
    </g>
</svg>