<?xml version="1.0" encoding="UTF-8"?>
<svg width="10px" height="16px" viewBox="0 0 10 16" version="1.1" xmlns="http://www.w3.org/2000/svg" xmlns:xlink="http://www.w3.org/1999/xlink">
    <!-- Generator: Sketch 46.2 (44496) - http://www.bohemiancoding.com/sketch -->
    <title>memorial</title>
    <desc>Created with Sketch.</desc>
    <defs></defs>
    <g id="Symbols" stroke="none" stroke-width="1" fill="none" fill-rule="evenodd">
        <g id="memorial-d" transform="translate(-20.000000, -8.000000)" fill="#D95E5B">
            <path d="M20.319697,16.7906909 C20.150303,16.6426182 20.1224242,16.3968 20.2539394,16.2170182 C20.9536364,15.2616727 22.4651515,14.6757818 23.4660606,14.4224 L23.4660606,14.0002909 C22.4384848,13.2762182 21.8324242,11.8682182 21.8324242,10.8413091 C21.8324242,9.27447273 23.16,8 24.7918182,8 C26.4236364,8 27.7515152,9.27447273 27.7515152,10.8413091 C27.7515152,11.8682182 27.1451515,13.2765091 26.1175758,14.0002909 L26.1175758,14.4224 C27.1187879,14.6757818 28.630303,15.2616727 29.33,16.2170182 C29.4618182,16.3968 29.4336364,16.6426182 29.2642424,16.7906909 C28.7469697,17.2430545 27.06,18.8730182 27.06,20.8619636 C27.06,21.0344727 27.0669697,21.2049455 27.0790909,21.3728 C27.0881818,21.4935273 27.0442424,21.6125091 26.9584848,21.7009455 C26.8724242,21.7896727 26.7521212,21.84 26.6257576,21.84 L22.9578788,21.84 C22.8315152,21.84 22.7112121,21.7896727 22.6251515,21.7009455 C22.5390909,21.6122182 22.4954545,21.4935273 22.5045455,21.3728 C22.5169697,21.2046545 22.5236364,21.0344727 22.5236364,20.8619636 C22.5239394,18.8727273 20.8366667,17.2427636 20.319697,16.7906909 Z M29.1287879,22.2498909 L20.4545455,22.2498909 C20.2033333,22.2498909 20,22.4450909 20,22.6862545 L20,23.4984727 C20,23.7396364 20.2033333,23.9348364 20.4545455,23.9348364 L29.1287879,23.9348364 C29.38,23.9348364 29.5833333,23.7396364 29.5833333,23.4984727 L29.5833333,22.6862545 C29.5833333,22.4450909 29.38,22.2498909 29.1287879,22.2498909 Z" id="memorial"></path>
        </g>
    </g>
</svg>