<?xml version="1.0" encoding="UTF-8"?>
<svg width="14px" height="14px" viewBox="0 0 14 14" version="1.1" xmlns="http://www.w3.org/2000/svg" xmlns:xlink="http://www.w3.org/1999/xlink">
    <!-- Generator: Sketch 46.2 (44496) - http://www.bohemiancoding.com/sketch -->
    <title>museum</title>
    <desc>Created with Sketch.</desc>
    <defs></defs>
    <g id="Symbols" stroke="none" stroke-width="1" fill="none" fill-rule="evenodd">
        <g id="museums-d" transform="translate(-14.000000, -9.000000)" fill="#D95E5B">
            <path d="M21,9 L14,13.375 L28,13.375 L21,9 Z M24.9375,14.25 L25.375,15.125 L25.375,20.375 L27.125,20.375 L27.125,15.125 L27.5625,14.25 L24.9375,14.25 Z M21.4375,14.25 L21.875,15.125 L21.875,20.375 L23.625,20.375 L23.625,15.125 L24.0625,14.25 L21.4375,14.25 Z M17.9375,14.25 L18.375,15.125 L18.375,20.375 L20.125,20.375 L20.125,15.125 L20.5625,14.25 L17.9375,14.25 Z M14.4375,14.25 L14.875,15.125 L14.875,20.375 L16.625,20.375 L16.625,15.125 L17.0625,14.25 L14.4375,14.25 Z M14.4375,21.25 L14,23 L28,23 L27.5625,21.25 L14.4375,21.25 Z M21.875,11.625 C21.875,12.1082461 21.4832461,12.5 21,12.5 C20.5167539,12.5 20.125,12.1082461 20.125,11.625 C20.125,11.1417539 20.5167539,10.75 21,10.75 C21.4832461,10.75 21.875,11.1417539 21.875,11.625 Z" id="museum"></path>
        </g>
    </g>
</svg>