<?xml version="1.0" encoding="UTF-8"?>
<svg width="32px" height="33px" viewBox="0 0 32 33" version="1.1" xmlns="http://www.w3.org/2000/svg" xmlns:xlink="http://www.w3.org/1999/xlink">
    <!-- Generator: Sketch 46.2 (44496) - http://www.bohemiancoding.com/sketch -->
    <title>smoking</title>
    <desc>Created with Sketch.</desc>
    <defs>
        <polygon id="path-1" points="15.7268 32.0934066 31.4533333 32.0934066 31.4533333 0.548262363 15.7268 0.548262363 0.000266666667 0.548262363 0.000266666667 32.0934066 15.7268 32.0934066"></polygon>
    </defs>
    <g id="Page-1" stroke="none" stroke-width="1" fill="none" fill-rule="evenodd">
        <g id="Artboard-Copy-7" transform="translate(-571.000000, -685.000000)">
            <g id="smoking" transform="translate(571.000000, 685.000000)">
                <g id="Group-3" transform="translate(0.000000, 0.359133)">
                    <mask id="mask-2" fill="white">
                        <use xlink:href="#path-1"></use>
                    </mask>
                    <g id="Clip-2"></g>
                    <path d="M15.7282667,32.0934066 C24.4136,32.0934066 31.4536,25.0328571 31.4536,16.3221717 C31.4536,7.61148626 24.4136,0.548262363 15.7282667,0.548262363 C7.04293333,0.548262363 0.000266666667,7.60881181 0.000266666667,16.3221717 C0.000266666667,25.0328571 7.04293333,32.0934066 15.7282667,32.0934066 M15.7282667,3.21468956 C22.9336,3.21468956 28.7949333,9.09313187 28.7949333,16.3194973 C28.7949333,19.3443008 27.7656,22.1337527 26.0429333,24.3535467 L20.1922667,18.5045234 L23.2162667,18.5045234 L23.2162667,13.9365618 L15.6242667,13.9365618 L7.6856,5.99879258 C9.90426667,4.25772527 12.6962667,3.21468956 15.7282667,3.21468956 M5.4296,8.26137775 L11.1042667,13.9365618 L4.25093333,13.9365618 L4.25093333,18.5045234 L15.6749333,18.5045234 L23.7949333,26.6241552 C21.5709333,28.3785948 18.7709333,29.4269794 15.7282667,29.4269794 C8.52293333,29.4269794 2.65893333,23.5485371 2.65893333,16.3221717 C2.65893333,13.2839959 3.69626667,10.4865206 5.4296,8.26137775" id="Fill-1" fill="#424242" mask="url(#mask-2)"></path>
                </g>
                <polygon id="Fill-4" fill="#424242" points="23.9226667 18.8636567 25.3413333 18.8636567 25.3413333 14.2983696 23.9226667 14.2983696"></polygon>
                <polygon id="Fill-5" fill="#424242" points="26.0506667 18.8636567 27.4693333 18.8636567 27.4693333 14.2983696 26.0506667 14.2983696"></polygon>
                <g id="Group-10" transform="translate(13.037037, 4.212155)" fill="#424242">
                    <path d="M6.89656296,5.33532033 C6.89656296,5.33532033 12.216563,5.31125027 13.368563,8.72384918 C13.368563,8.72384918 13.1018963,3.36157582 6.54722963,3.46053049 C-0.0101037037,3.55948516 0.429896296,0.403633516 0.429896296,0.403633516 C0.429896296,0.403633516 -1.34877037,4.44740275 6.89656296,5.33532033" id="Fill-6"></path>
                    <path d="M11.8600296,9.64947651 C11.8600296,9.64947651 11.6440296,5.89722239 6.28402963,5.96408365 C0.926696296,6.03629382 1.2866963,3.82719766 1.2866963,3.82719766 C1.2866963,3.82719766 -0.166637037,6.65676635 6.57202963,7.27723887 C6.57202963,7.27723887 10.921363,7.26119217 11.8600296,9.64947651" id="Fill-8"></path>
                </g>
            </g>
        </g>
    </g>
</svg>