<?xml version="1.0" encoding="UTF-8"?>
<svg width="11px" height="16px" viewBox="0 0 11 16" version="1.1" xmlns="http://www.w3.org/2000/svg" xmlns:xlink="http://www.w3.org/1999/xlink">
    <!-- Generator: Sketch 46.2 (44496) - http://www.bohemiancoding.com/sketch -->
    <title>parks</title>
    <desc>Created with Sketch.</desc>
    <defs></defs>
    <g id="Symbols" stroke="none" stroke-width="1" fill="none" fill-rule="evenodd">
        <g id="parks-d" transform="translate(-16.000000, -8.000000)" fill="#D95E5B">
            <path d="M26.1450532,12.925312 C26.0445475,12.814848 25.9368061,12.7132587 25.8235019,12.6198187 C25.8802586,12.473088 25.9117947,12.3135147 25.9117947,12.1464747 C25.9117947,11.4331733 25.3428897,10.8528213 24.6436578,10.8528213 C24.6024601,10.8528213 24.5617643,10.8549973 24.5215285,10.8589227 C24.3936692,9.26084267 23.0787719,8 21.4798403,8 C20.3999163,8 19.4498593,8.57553067 18.9070114,9.44119467 C18.7901939,9.42109867 18.6704068,9.41009067 18.5480684,9.41009067 C17.3610722,9.41009067 16.3953726,10.3952213 16.3953726,11.6061013 C16.3953726,12.0971947 16.5542243,12.5510827 16.8222395,12.917248 C16.81973,12.9199787 16.8170951,12.9225387 16.8146274,12.925312 C16.2893042,13.5025493 16,14.254464 16,15.0426027 C16,16.759808 17.3694791,18.1568 19.0528137,18.1568 C19.2114144,18.1568 19.3677985,18.1443413 19.5210456,18.1205333 L20.6476882,19.8962347 L20.0986502,23.5256747 C20.0811255,23.6420693 20.1109886,23.7531307 20.1827605,23.838464 C20.2552015,23.924608 20.3645741,23.974016 20.48273,23.974016 L22.4914639,23.974016 C22.6096198,23.974016 22.7189087,23.924608 22.7913916,23.8385067 C22.8631635,23.7531733 22.8930266,23.6420693 22.8754601,23.5255893 L22.3357072,19.9571627 L23.4957681,18.1288107 C23.6306958,18.1471573 23.7678821,18.1568 23.9068251,18.1568 C25.5901597,18.1568 26.9596388,16.7597653 26.9596388,15.0426027 C26.9596388,14.254464 26.6703346,13.5025067 26.1450532,12.925312 Z M21.5110418,18.9011627 L20.7200875,17.654528 C21.008346,17.4626133 21.2656122,17.2196267 21.4798403,16.9322667 C21.704943,17.2342187 21.9776426,17.486976 22.2838441,17.6832 L21.5110418,18.9011627 Z" id="parks"></path>
        </g>
    </g>
</svg>