<?xml version="1.0" encoding="UTF-8"?>
<svg width="14px" height="14px" viewBox="0 0 14 14" version="1.1" xmlns="http://www.w3.org/2000/svg" xmlns:xlink="http://www.w3.org/1999/xlink">
    <!-- Generator: Sketch 46.2 (44496) - http://www.bohemiancoding.com/sketch -->
    <title>pharmacy</title>
    <desc>Created with Sketch.</desc>
    <defs></defs>
    <g id="Symbols" stroke="none" stroke-width="1" fill="none" fill-rule="evenodd">
        <g id="d-pharmacy" transform="translate(-25.000000, -10.000000)" fill="#D95E5B">
            <g id="pharmacy">
                <path d="M29.6531431,14.6666667 L26.0039277,14.6666667 C25.4486448,14.6666667 25,15.1148821 25,15.6677837 L25,18.3322163 C25,18.8858737 25.4494738,19.3333333 26.0039277,19.3333333 L29.6531431,19.3333333 L29.6531431,22.4482639 C29.6531431,23.3057378 30.3468462,24 31.2025723,24 L32.7568568,24 C33.6096636,24 34.3062861,23.3052641 34.3062861,22.4482639 L34.3062861,19.3333333 L37.9555014,19.3333333 C38.5107843,19.3333333 38.9594292,18.8851179 38.9594292,18.3322163 L38.9594292,15.6677837 C38.9594292,15.1141263 38.5099554,14.6666667 37.9555014,14.6666667 L34.3062861,14.6666667 L34.3062861,11.5517361 C34.3062861,10.6942622 33.612583,10 32.7568568,10 L31.2025723,10 C30.3497656,10 29.6531431,10.6947359 29.6531431,11.5517361 L29.6531431,14.6666667 Z"></path>
            </g>
        </g>
    </g>
</svg>