<?xml version="1.0" encoding="UTF-8"?>
<svg width="14px" height="23px" viewBox="0 0 14 23" version="1.1" xmlns="http://www.w3.org/2000/svg" xmlns:xlink="http://www.w3.org/1999/xlink">
    <!-- Generator: Sketch 46.2 (44496) - http://www.bohemiancoding.com/sketch -->
    <title>phone</title>
    <desc>Created with Sketch.</desc>
    <defs></defs>
    <g id="Page-1" stroke="none" stroke-width="1" fill="none" fill-rule="evenodd">
        <g id="Artboard-Copy-7" transform="translate(-444.000000, -309.000000)" fill="#434242">
            <g id="Page-1" transform="translate(444.000000, 309.000000)">
                <path d="M10.4517538,14.7736302 L8.41852308,15.913773 L11.7566256,22.0704714 L13.7898564,20.9303286 L10.4517538,14.7736302 Z M4.80221538,-3.65079363e-05 L2.60277949,0.756407937 L4.81693333,7.41655079 L7.01636923,6.66047143 L4.80221538,-3.65079363e-05 Z M4.3330359,7.58156667 L3.0016,7.99045556 C3.0016,7.99045556 3.49662564,10.1634079 4.36390769,12.4933444 C5.23083077,14.823281 6.90257436,16.7749952 6.90257436,16.7749952 L7.98595897,16.1769952 L11.3603179,22.284773 L10.4316513,22.7885825 C7.24288205,22.6626302 4.42565128,17.9713603 4.42565128,17.9713603 C4.42565128,17.9713603 1.1130359,13.0281857 0.184369231,7.3296619 C-0.744297436,1.6311381 2.13467692,0.906820635 2.13467692,0.906820635 L4.3330359,7.58156667 Z" id="phone"></path>
            </g>
        </g>
    </g>
</svg>