<?xml version="1.0" encoding="UTF-8"?>
<svg width="19px" height="18px" viewBox="0 0 19 18" version="1.1" xmlns="http://www.w3.org/2000/svg" xmlns:xlink="http://www.w3.org/1999/xlink">
    <!-- Generator: Sketch 46.2 (44496) - http://www.bohemiancoding.com/sketch -->
    <title>places</title>
    <desc>Created with Sketch.</desc>
    <defs></defs>
    <g id="Page-1" stroke="none" stroke-width="1" fill="none" fill-rule="evenodd" fill-opacity="0.7">
        <g id="Artboard-Copy-5" transform="translate(-73.000000, -336.000000)" fill="#000000">
            <path d="M91.7625,348.869087 L91.7625,347.200872 C91.7625,347.069083 91.6563375,346.962556 91.525,346.962556 C91.3936625,346.962556 91.2875,346.856028 91.2875,346.724239 L91.2875,346.247607 C91.2875,346.115818 91.1813375,346.00929 91.05,346.00929 C90.9186625,346.00929 90.8125,346.115818 90.8125,346.247607 L90.8125,346.724239 C90.8125,346.856028 90.7063375,346.962556 90.575,346.962556 L90.4773875,346.962556 C90.391175,346.962556 90.3116125,347.009504 90.269575,347.085289 L89.217925,348.984671 C89.1758875,349.060455 89.096325,349.107404 89.0101125,349.107404 L86.775,349.107404 C86.6436625,349.107404 86.5375,349.000876 86.5375,348.869087 L86.5375,348.630771 C86.5375,348.498982 86.4313375,348.392455 86.3,348.392455 L86.0625,348.392455 C85.9311625,348.392455 85.825,348.498982 85.825,348.630771 L85.825,348.869087 C85.825,349.000876 85.7188375,349.107404 85.5875,349.107404 L85.35,349.107404 C85.2186625,349.107404 85.1125,349.000876 85.1125,348.869087 L85.1125,345.770974 C85.1125,345.639185 85.0063375,345.532657 84.875,345.532657 L84.6375,345.532657 C84.5061625,345.532657 84.4,345.42613 84.4,345.294341 L84.4,344.817708 C84.4,344.685919 84.2938375,344.579392 84.1625,344.579392 L83.925,344.579392 C83.7936625,344.579392 83.6875,344.472864 83.6875,344.341075 L83.6875,342.74507 C83.6875,342.697883 83.6734875,342.651888 83.6476,342.612804 L83.2524,342.017967 C83.2265125,341.978883 83.2125,341.932888 83.2125,341.885701 L83.2125,340.584255 C83.2125,340.547316 83.20395,340.510853 83.1875625,340.477727 L82.7624375,339.625031 C82.74605,339.591905 82.7375,339.555443 82.7375,339.518504 L82.7375,336 L82.5,336 L82.2625,336 L82.2625,339.518504 C82.2625,339.555443 82.25395,339.591905 82.2375625,339.625031 L81.8124375,340.477727 C81.79605,340.510853 81.7875,340.547316 81.7875,340.584255 L81.7875,341.885701 C81.7875,341.932888 81.7734875,341.978883 81.7476,342.017967 L81.3524,342.612804 C81.3265125,342.651888 81.3125,342.697883 81.3125,342.74507 L81.3125,344.341075 C81.3125,344.472864 81.2063375,344.579392 81.075,344.579392 L80.8375,344.579392 C80.7061625,344.579392 80.6,344.685919 80.6,344.817708 L80.6,345.294341 C80.6,345.42613 80.4938375,345.532657 80.3625,345.532657 L80.125,345.532657 C79.9936625,345.532657 79.8875,345.639185 79.8875,345.770974 L79.8875,348.869087 C79.8875,349.000876 79.7813375,349.107404 79.65,349.107404 L79.4125,349.107404 C79.2811625,349.107404 79.175,349.000876 79.175,348.869087 L79.175,348.630771 C79.175,348.498982 79.0688375,348.392455 78.9375,348.392455 L78.7,348.392455 C78.5686625,348.392455 78.4625,348.498982 78.4625,348.630771 L78.4625,348.869087 C78.4625,349.000876 78.3563375,349.107404 78.225,349.107404 L75.9898875,349.107404 C75.903675,349.107404 75.8241125,349.060455 75.782075,348.984671 L74.730425,347.085289 C74.6883875,347.009504 74.608825,346.962556 74.5226125,346.962556 L74.425,346.962556 C74.2936625,346.962556 74.1875,346.856028 74.1875,346.724239 L74.1875,346.247607 C74.1875,346.115818 74.0813375,346.00929 73.95,346.00929 C73.8186625,346.00929 73.7125,346.115818 73.7125,346.247607 L73.7125,346.724239 C73.7125,346.856028 73.6063375,346.962556 73.475,346.962556 C73.3436625,346.962556 73.2375,347.069083 73.2375,347.200872 L73.2375,348.869087 L73,348.869087 L73,353.635416 C73,353.767205 73.1061625,353.873732 73.2375,353.873732 L82.5,353.873732 L91.7625,353.873732 C91.8938375,353.873732 92,353.767205 92,353.635416 L92,348.869087 L91.7625,348.869087 Z" id="places"></path>
        </g>
    </g>
</svg>