<?xml version="1.0" encoding="UTF-8"?>
<svg width="15px" height="15px" viewBox="0 0 15 15" version="1.1" xmlns="http://www.w3.org/2000/svg" xmlns:xlink="http://www.w3.org/1999/xlink">
    <!-- Generator: Sketch 46.2 (44496) - http://www.bohemiancoding.com/sketch -->
    <title>plus</title>
    <desc>Created with Sketch.</desc>
    <defs></defs>
    <g id="Symbols" stroke="none" stroke-width="1" fill="none" fill-rule="evenodd" fill-opacity="0.7">
        <g id="Icons" transform="translate(-416.000000, -924.000000)" fill="#000000">
            <path d="M421.723684,929.723684 L417.524348,929.723684 C416.679917,929.723684 416,930.407039 416,931.25 C416,932.098838 416.682474,932.776316 417.524348,932.776316 L421.723684,932.776316 L421.723684,936.975652 C421.723684,937.820083 422.407039,938.5 423.25,938.5 C424.098838,938.5 424.776316,937.817526 424.776316,936.975652 L424.776316,932.776316 L428.975652,932.776316 C429.820083,932.776316 430.5,932.092961 430.5,931.25 C430.5,930.401162 429.817526,929.723684 428.975652,929.723684 L424.776316,929.723684 L424.776316,925.524348 C424.776316,924.679917 424.092961,924 423.25,924 C422.401162,924 421.723684,924.682474 421.723684,925.524348 L421.723684,929.723684 Z" id="plus"></path>
        </g>
    </g>
</svg>