<?xml version="1.0" encoding="UTF-8"?>
<svg width="26px" height="25px" viewBox="0 0 26 25" version="1.1" xmlns="http://www.w3.org/2000/svg" xmlns:xlink="http://www.w3.org/1999/xlink">
    <!-- Generator: Sketch 46.2 (44496) - http://www.bohemiancoding.com/sketch -->
    <title>point-to-point-a</title>
    <desc>Created with Sketch.</desc>
    <defs></defs>
    <g id="Symbols" stroke="none" stroke-width="1" fill="none" fill-rule="evenodd">
        <g id="Icons" transform="translate(-483.000000, -838.000000)" fill="#D95E5B">
            <g id="Transport-active" transform="translate(484.000000, 838.000000)">
                <g id="Group-2" stroke-width="1" transform="translate(-1.200000, 0.000000)">
                    <path d="M2.40300878,2.15094857 C3.2124082,1.27799013 4.3343712,0.737997157 5.57697951,0.737997157 C6.81950915,0.737997157 7.94147216,1.27799013 8.7508519,2.1509673 C9.545269,3.00779774 10.0366665,4.18584418 10.0366665,5.48190974 C10.0366665,5.99640418 9.95832232,6.4945833 9.81363646,6.96340984 C9.66382061,7.44888418 9.4425715,7.89956906 9.16336336,8.30127052 L6.01337812,12.8309345 L5.57699771,13.4584654 L5.14057845,12.8309345 L1.99057353,8.30127052 C1.71130689,7.89962666 1.49005974,7.44895911 1.3402021,6.96346603 C1.19549706,6.4946395 1.11715284,5.99642291 1.11715284,5.48190974 C1.11715284,4.18580672 1.60856956,3.00777433 2.40300681,2.15094857 L2.40300878,2.15094857 Z M5.57695984,8.22765491 C4.84596316,8.22765491 4.18711469,7.91129932 3.71294166,7.39993823 C3.25375685,6.90469062 2.96969163,6.22618135 2.96969163,5.48189101 C2.96969163,4.73756321 3.25373964,4.05903521 3.71294166,3.56377355 C4.1870906,3.05239325 4.84591891,2.73603813 5.57695984,2.73603813 C6.30793686,2.73603813 6.96679024,3.05239372 7.44089936,3.56379228 C7.90008417,4.05903989 8.18413463,4.73756789 8.18413463,5.48189101 C8.18413463,6.22618135 7.90008663,6.90470935 7.44089936,7.39995696 C6.96676959,7.91131852 6.3079762,8.22765491 5.57695984,8.22765491 L5.57695984,8.22765491 Z" id="_213364632"></path>
                    <path d="M7.6138279,11.7424725 L7.53813595,11.749294 L7.43121862,11.7601533 L7.32298499,11.7723399 L7.21343506,11.7858725 L7.10254916,11.800714 L6.99025009,11.8169199 L6.8766539,11.8344901 L6.76164454,11.8533877 L6.64522202,11.8736681 L6.52740599,11.8952944 L6.73094185,12.8753514 L6.83896257,12.855495 L6.94524117,12.8369845 L7.04991287,12.8197831 L7.15290048,12.8038722 L7.25420399,12.7892518 L7.35393944,12.7758852 L7.45202915,12.7637907 L7.54849278,12.7529315 L7.64333034,12.7432891 L7.71902229,12.7364675 L7.6138279,11.7424694 L7.6138279,11.7424725 Z M20.0119329,22.86625 L19.8883673,22.8607928 L19.76817,22.8543215 L19.6497147,22.8467809 L19.5330213,22.8381893 L19.4180119,22.8285654 L19.3046871,22.8179089 L19.1930268,22.8062201 L19.0830702,22.7935541 L19.0120824,22.7845754 L18.8683647,23.7741855 L18.9511614,23.7846391 L19.0727719,23.7986695 L19.1958925,23.8115383 L19.3205231,23.8232641 L19.4466829,23.8338467 L19.5744107,23.8432494 L19.7036289,23.8514538 L19.8344349,23.858515 L19.9580005,23.8639723 L20.0119334,22.8662513 L20.0119329,22.86625 Z M18.0457625,22.6079145 L17.9792079,22.591469 L17.8881064,22.5677593 L17.7984765,22.5431832 L17.710279,22.5177958 L17.6235138,22.4915604 L17.5381037,22.4645506 L17.4541648,22.4367296 L17.3716008,22.4081527 L17.2904111,22.3788014 L17.2105568,22.3486943 L17.1319997,22.3178128 L17.1276053,22.316006 L16.706518,23.2310218 L16.7249279,23.2385439 L16.8173841,23.2748827 L16.9111763,23.3102628 L17.0063045,23.3446657 L17.1027293,23.3780362 L17.2004512,23.4103926 L17.2994894,23.4417535 L17.3998828,23.4720819 L17.5016313,23.5013779 L17.6047349,23.5296413 L17.7092325,23.5568539 L17.7757871,23.5732995 L18.0457615,22.6079141 L18.0457625,22.6079145 Z M16.2846931,21.8915906 L16.2233265,21.8528735 L16.1613984,21.8124786 L16.1004385,21.77142 L16.0405624,21.7298084 L15.9817512,21.6876067 L15.9238886,21.6447782 L15.8669936,21.6013228 L15.811028,21.5572406 L15.7560108,21.5126053 L15.7019422,21.4674169 L15.6487641,21.4215832 L15.5964184,21.375178 L15.545002,21.3282195 L15.5456796,21.3288463 L14.8035506,22.0349006 L14.8135977,22.0443402 L14.8760097,22.1013281 L14.9394669,22.1576155 L15.0040665,22.2132576 L15.0698274,22.2682543 L15.1366917,22.3225135 L15.2046983,22.3760352 L15.2738663,22.4288562 L15.3441957,22.4809397 L15.415745,22.5322862 L15.4884365,22.582821 L15.5622506,22.6325078 L15.6373039,22.6814575 L15.6986704,22.7201746 L16.2846921,21.8915916 L16.2846931,21.8915906 Z M14.925142,20.6351473 L14.9085517,20.6129126 L14.8684989,20.5578423 L14.8291429,20.5023295 L14.7904258,20.4462819 L14.7523281,20.3897548 L14.7148887,20.3327851 L14.6780687,20.2753546 L14.6418295,20.2173893 L14.6061904,20.1590003 L14.5711514,20.1001869 L14.5366545,20.0408575 L14.5027383,19.9811408 L14.4693835,19.9210003 L14.4365514,19.8604356 L14.4271431,19.8426441 L13.4883312,20.2883703 L13.5021532,20.3144214 L13.5395153,20.3833929 L13.5776323,20.4521252 L13.6165042,20.5205437 L13.6561119,20.5886489 L13.6965325,20.656533 L13.7377469,20.7240299 L13.779755,20.7912135 L13.8226148,20.8580834 L13.8663264,20.924603 L13.9108898,20.990717 L13.956305,21.0564255 L14.00263,21.1217837 L14.0498455,21.1866994 L14.0664358,21.208934 L14.9251436,20.6351444 L14.925142,20.6351473 Z M14.0286071,18.9735933 L14.0284329,18.9731509 L14.0025311,18.9073501 L13.9769972,18.8412543 L13.9518311,18.7749005 L13.9270328,18.708307 L13.9025636,18.6413819 L13.8783847,18.574254 L13.8545737,18.5069599 L13.8311112,18.4394817 L13.8079003,18.3716898 L13.784941,18.3036951 L13.7622915,18.2355529 L13.7398937,18.1672079 L13.7177668,18.0987707 L13.7052419,18.0595373 L12.7010378,18.3482562 L12.7146469,18.3909188 L12.737974,18.4630799 L12.7616108,18.5351492 L12.7855767,18.6072737 L12.809891,18.6793613 L12.8345732,18.7514671 L12.8597006,18.8236282 L12.8852152,18.8957158 L12.9110976,18.9677111 L12.9374252,19.0396142 L12.9641981,19.1115542 L12.991455,19.183402 L13.0191571,19.2551393 L13.0473819,19.3268396 L13.0475561,19.3272821 L14.0286105,18.9735919 L14.0286071,18.9735933 Z M13.4232663,17.1126825 L13.4078181,17.0582205 L13.388053,16.9884192 L13.3683654,16.9186361 L13.3486777,16.8488164 L13.3290288,16.7790521 L13.3093799,16.709343 L13.2897116,16.6396151 L13.2700239,16.5698873 L13.2502975,16.5003257 L13.2305324,16.4308006 L13.2106899,16.3612942 L13.19077,16.2918984 L13.1707726,16.2226684 L13.1506784,16.1535123 L13.1478327,16.143833 L12.1377036,16.4131936 L12.1399686,16.4208448 L12.1595594,16.4883047 L12.1791309,16.5560967 L12.1986637,16.6241283 L12.2181578,16.6923811 L12.2376518,16.7610211 L12.2571846,16.8299191 L12.2767174,16.8989829 L12.2962696,16.9683417 L12.3158798,17.0379773 L12.3355674,17.1078157 L12.3552938,17.1778198 L12.3751363,17.248082 L12.3950563,17.3185104 L12.4105044,17.3729724 L13.423269,17.1126826 L13.4232663,17.1126825 Z M12.8369348,15.1624074 L12.8270813,15.1343467 L12.8033671,15.0680111 L12.779285,15.0019341 L12.7548352,14.9361151 L12.7299981,14.8706094 L12.7047933,14.8054357 L12.6791626,14.74052 L12.6530866,14.6758624 L12.6265073,14.6114628 L12.5995215,14.5474874 L12.572071,14.4838806 L12.5440398,14.4204401 L12.5155247,14.3574416 L12.4864481,14.2947752 L12.4568295,14.232496 L12.4312763,14.1801357 L11.4820894,14.605397 L11.5033838,14.6490551 L11.5289371,14.702743 L11.5541032,14.7570392 L11.578979,14.811962 L11.6034869,14.8674382 L11.6277238,14.9236334 L11.6516897,14.9803815 L11.6752878,15.0376275 L11.6986148,15.0954635 L11.7216902,15.1538896 L11.7444946,15.2128687 L11.7670473,15.2723639 L11.789329,15.3323199 L11.811359,15.3927924 L11.8331761,15.453781 L11.8430296,15.4818417 L12.8369373,15.1624071 L12.8369348,15.1624074 Z M11.8396589,13.2280074 L11.8073302,13.1875572 L11.7635992,13.1346256 L11.7189777,13.0823576 L11.6733883,13.0307161 L11.626831,12.979757 L11.5793251,12.9295172 L11.530832,12.8800144 L11.4813323,12.831231 L11.4308064,12.7832216 L11.3792932,12.736042 L11.3267543,12.6896553 L11.2731503,12.6440981 L11.2185398,12.5994444 L11.1628648,12.5556387 L11.1060667,12.5126996 L11.048262,12.4707561 L10.9894121,12.4297528 L10.9784938,12.4224703 L10.3848064,13.2460754 L10.378573,13.2419271 L10.4206972,13.2712784 L10.4620858,13.3013118 L10.5027387,13.3320458 L10.5427722,13.3635357 L10.5822056,13.3958 L10.6209808,13.4287464 L10.6591172,13.4624119 L10.6967309,13.4968701 L10.7337058,13.5320105 L10.7701192,13.5678884 L10.8060293,13.604559 L10.8413781,13.6419302 L10.8762041,13.6800573 L10.9105268,13.7189404 L10.9443849,13.7585978 L10.9777397,13.7989926 L11.0100685,13.8394428 L11.8396623,13.2280071 L11.8396589,13.2280074 Z M9.89133752,11.9153689 L9.82420226,11.8960657 L9.74605178,11.8751216 L9.66691394,11.8554127 L9.58655668,11.8368838 L9.50523124,11.8196639 L9.42284125,11.8036424 L9.33936705,11.7888746 L9.25480863,11.7753421 L9.16912765,11.7630817 L9.08244014,11.7520565 L8.99455237,11.7423035 L8.90565808,11.7338226 L8.81558271,11.726577 L8.74600809,11.7220415 L8.68224103,12.7192099 L8.73567044,12.7227129 L8.80929083,12.7286311 L8.88157573,12.7355264 L8.95238946,12.7433989 L9.02188688,12.7522117 L9.08999031,12.7619647 L9.15677744,12.772658 L9.22224827,12.7842178 L9.2864023,12.7966994 L9.34933691,12.8100476 L9.41087752,12.8242254 L9.47135358,12.8392882 L9.53053253,12.8551438 L9.59766779,12.8744471 L9.89133703,11.9153696 L9.89133752,11.9153689 Z" id="_213364416"></path>
                    <path d="M17.6131879,12.9696803 C18.4225873,12.0967218 19.5445503,11.5567289 20.7871586,11.5567289 C22.0296883,11.5567289 23.1516513,12.0967218 23.961031,12.969699 C24.7554481,13.8265294 25.2468457,15.0045759 25.2468457,16.3006414 C25.2468457,16.8151359 25.1685014,17.313315 25.0238156,17.7821415 C24.8739997,18.2676159 24.6527506,18.7183008 24.3735425,19.1200022 L21.2235572,23.6496662 L20.7871768,24.2771972 L20.3507576,23.6496662 L17.2007527,19.1200022 C16.921486,18.7183584 16.7002389,18.2676908 16.5503812,17.7821977 C16.4056762,17.3133712 16.327332,16.8151546 16.327332,16.3006414 C16.327332,15.0045384 16.8187487,13.826506 17.6131859,12.9696803 L17.6131879,12.9696803 Z M20.787139,19.0463866 C20.0561423,19.0463866 19.3972938,18.730031 18.9231208,18.2186699 C18.463936,17.7234223 18.1798708,17.0449131 18.1798708,16.3006227 C18.1798708,15.5562949 18.4639188,14.8777669 18.9231208,14.3825053 C19.3972697,13.871125 20.056098,13.5547698 20.787139,13.5547698 C21.518116,13.5547698 22.1769694,13.8711254 22.6510785,14.382524 C23.1102633,14.8777716 23.3943138,15.5562996 23.3943138,16.3006227 C23.3943138,17.0449131 23.1102657,17.7234411 22.6510785,18.2186887 C22.1769487,18.7300502 21.5181553,19.0463866 20.787139,19.0463866 L20.787139,19.0463866 Z" id="_213364680"></path>
                </g>
                <rect id="Rectangle-3" transform="translate(20.012132, 4.202031) rotate(-45.000000) translate(-20.012132, -4.202031) " x="19.412132" y="0.447134616" width="1.2" height="7.50979178" rx="0.6"></rect>
                <rect id="Rectangle-3" transform="translate(20.012132, 4.202031) rotate(-315.000000) translate(-20.012132, -4.202031) " x="19.412132" y="0.447134616" width="1.2" height="7.50979178" rx="0.6"></rect>
            </g>
        </g>
    </g>
</svg>