<?xml version="1.0" encoding="UTF-8"?>
<svg width="22px" height="22px" viewBox="0 0 22 22" version="1.1" xmlns="http://www.w3.org/2000/svg" xmlns:xlink="http://www.w3.org/1999/xlink">
    <!-- Generator: Sketch 46.2 (44496) - http://www.bohemiancoding.com/sketch -->
    <title>point-to-point</title>
    <desc>Created with Sketch.</desc>
    <defs></defs>
    <g id="Symbols" stroke="none" stroke-width="1" fill="none" fill-rule="evenodd">
        <g id="Icons" transform="translate(-487.000000, -801.000000)" fill="#424242">
            <g id="3687---Distance" transform="translate(484.000000, 798.000000)">
                <g id="Layer_x0020_1">
                    <g id="point-to-point" transform="translate(3.869919, 3.186992)">
                        <path d="M1.13258862,1.69508813 C1.80708813,0.931249496 2.7420573,0.458755642 3.77756423,0.458755642 C4.81300559,0.458755642 5.74797476,0.931249496 6.42245789,1.69510452 C7.08447213,2.44483115 7.49397008,3.47562179 7.49397008,4.60967915 C7.49397008,5.05986179 7.42868323,5.49576852 7.30811168,5.90599174 C7.18326514,6.33078179 6.99889088,6.72513106 6.76621744,7.07661984 L4.14122973,11.0400758 L3.77757939,11.5891654 L3.41389668,11.0400758 L0.788892579,7.07661984 C0.556170374,6.72518146 0.37179775,6.33084735 0.246916384,5.90604091 C0.126328852,5.49581769 0.0610420032,5.05987818 0.0610420032,4.60967915 C0.0610420032,3.47558901 0.470555935,2.44481067 1.13258698,1.69508813 L1.13258862,1.69508813 Z M3.77754784,7.01220618 C3.16838393,7.01220618 2.61934354,6.73539504 2.22419935,6.28795408 C1.84154534,5.85461242 1.60482433,5.26091681 1.60482433,4.60966276 C1.60482433,3.95837593 1.841531,3.36466393 2.22419935,2.93130998 C2.61932347,2.48385223 3.16834706,2.2070415 3.77754784,2.2070415 C4.38669535,2.2070415 4.93573984,2.48385264 5.33083076,2.93132637 C5.71348477,3.36466803 5.9501935,3.95838003 5.9501935,4.60966276 C5.9501935,5.26091681 5.71348682,5.85462881 5.33083076,6.28797047 C4.93572263,6.73541184 4.38672813,7.01220618 3.77754784,7.01220618 L3.77754784,7.01220618 Z" id="_213364632"></path>
                        <path d="M5.47493789,10.0876715 L5.41186126,10.0936404 L5.32276349,10.1031423 L5.23256879,10.1138056 L5.14127718,10.1256466 L5.04887227,10.1386329 L4.95528971,10.1528131 L4.86062622,10.168187 L4.76478509,10.1847224 L4.66776632,10.2024677 L4.5695863,10.2213907 L4.73919951,11.0789406 L4.82921677,11.0615663 L4.91778228,11.0453696 L5.0050087,11.0303183 L5.0908317,11.0163963 L5.17525129,11.0036035 L5.25836417,10.9919077 L5.34010559,10.981325 L5.42049195,10.9718232 L5.49952325,10.9633861 L5.56259988,10.9574172 L5.47493789,10.0876689 L5.47493789,10.0876715 Z M15.806692,19.8209769 L15.7037207,19.8162018 L15.6035563,19.8105394 L15.5048436,19.8039414 L15.407599,19.7964238 L15.3117579,19.7880028 L15.2173206,19.7786784 L15.1242703,19.7684507 L15.0326398,19.7573679 L14.9734833,19.7495116 L14.8537186,20.6154205 L14.9227158,20.6245674 L15.0240579,20.6368439 L15.1266584,20.6481041 L15.2305172,20.6583642 L15.3356504,20.667624 L15.4420902,20.6758514 L15.5497721,20.6830302 L15.658777,20.6892088 L15.7617483,20.6939839 L15.8066924,19.820978 L15.806692,19.8209769 Z M14.1682167,19.5949333 L14.1127546,19.5805435 L14.0368366,19.5597976 L13.962145,19.5382934 L13.8886471,19.5160795 L13.8163428,19.4931235 L13.7451677,19.4694899 L13.6752187,19.4451465 L13.6064153,19.4201417 L13.5387572,19.3944594 L13.472212,19.3681156 L13.4067477,19.3410943 L13.4030857,19.3395133 L13.0521796,20.1401522 L13.0675212,20.1467341 L13.1445681,20.1785305 L13.2227282,20.2094881 L13.3020017,20.2395906 L13.3823557,20.2687898 L13.4637906,20.2971017 L13.5463225,20.3245424 L13.6299836,20.3510798 L13.714774,20.3767138 L13.8006937,20.4014443 L13.8877751,20.4252553 L13.9432372,20.4396452 L14.1682159,19.594933 L14.1682167,19.5949333 Z M12.7006589,18.9681499 L12.6495201,18.9342724 L12.5979133,18.8989269 L12.5471134,18.8630007 L12.4972166,18.8265904 L12.4482073,18.789664 L12.3999884,18.7521891 L12.352576,18.7141656 L12.3059379,18.6755937 L12.2600903,18.6365378 L12.2150331,18.5969979 L12.170718,18.5568934 L12.1270966,18.5162889 L12.0842497,18.4752002 L12.0848143,18.4757487 L11.4663735,19.0935461 L11.4747461,19.1018058 L11.526756,19.1516702 L11.5796371,19.2009217 L11.63347,19.2496085 L11.6882708,19.2977307 L11.7439911,19.3452075 L11.8006632,19.3920389 L11.8583032,19.4382573 L11.916911,19.4838304 L11.9765354,19.5287585 L12.0371117,19.5729765 L12.0986235,19.6164525 L12.1611679,19.6592835 L12.2123066,19.6931609 L12.7006581,18.9681508 L12.7006589,18.9681499 Z M11.5676996,17.868762 L11.5538744,17.8493067 L11.520497,17.8011202 L11.4877004,17.7525464 L11.4554361,17.7035048 L11.4236881,17.6540435 L11.3924885,17.6041951 L11.3618052,17.5539434 L11.3316059,17.5032238 L11.3019066,17.4521334 L11.2727075,17.4006717 L11.24396,17.3487584 L11.2156965,17.2965063 L11.1879009,17.2438834 L11.1605408,17.1908893 L11.1527006,17.1753218 L10.3703573,17.5653321 L10.3818757,17.5881268 L10.4130107,17.6484769 L10.4447749,17.7086176 L10.4771682,17.7684838 L10.5101745,17.8280759 L10.5438584,17.8874745 L10.5782037,17.9465343 L10.6132104,18.00532 L10.648927,18.0638311 L10.6853533,18.1220357 L10.7224895,18.1798855 L10.7603354,18.2373804 L10.7989396,18.2945689 L10.8382859,18.3513701 L10.8521111,18.3708254 L11.567701,17.8687595 L11.5676996,17.868762 Z M10.8205873,16.4149023 L10.8204421,16.4145151 L10.7988573,16.3569395 L10.777579,16.2991057 L10.7566072,16.2410461 L10.735942,16.1827767 L10.7155509,16.1242173 L10.6954019,16.0654804 L10.6755594,16.006598 L10.6560073,15.9475546 L10.6366649,15.8882367 L10.6175322,15.8287413 L10.5986576,15.7691169 L10.5799927,15.709315 L10.5615537,15.6494325 L10.5511162,15.6151033 L9.7142795,15.8677323 L9.7256204,15.905062 L9.7450596,15.968203 L9.76475694,16.0312636 L9.78472854,16.0943726 L9.80499048,16.1574493 L9.82555897,16.2205419 L9.84649849,16.2836828 L9.86776065,16.3467595 L9.88932931,16.4097554 L9.91126901,16.4726705 L9.93357973,16.5356181 L9.95629378,16.5984849 L9.97937887,16.661255 L10.0028995,16.7239928 L10.0030447,16.72438 L10.8205901,16.414901 L10.8205873,16.4149023 Z M10.3161365,14.7866053 L10.3032631,14.7389511 L10.2867922,14.6778749 L10.2703858,14.6168147 L10.2539794,14.5557225 L10.2376053,14.4946787 L10.2212312,14.4336832 L10.2048409,14.3726713 L10.1884346,14.3116595 L10.1719959,14.2507931 L10.155525,14.1899586 L10.1389896,14.1291406 L10.1223896,14.0684193 L10.1057251,14.007843 L10.08898,13.9473314 L10.0866086,13.938862 L9.24483433,14.1745525 L9.24672178,14.1812474 L9.26304749,14.2402748 L9.27935705,14.2995927 L9.29563437,14.3591204 L9.31187944,14.4188416 L9.3281245,14.4789016 L9.34440182,14.5391873 L9.36067913,14.5996182 L9.37697259,14.6603071 L9.39331445,14.7212383 L9.40972083,14.7823468 L9.42615947,14.8436005 L9.44269489,14.9050799 L9.45929485,14.9667047 L9.47216828,15.0143589 L10.3161388,14.7866054 L10.3161365,14.7866053 Z M9.82752696,13.0801146 L9.81931569,13.0555615 L9.79955385,12.9975179 L9.77948547,12.9397005 L9.7591106,12.8821088 L9.73841308,12.8247913 L9.71740906,12.7677644 L9.69605012,12.7109631 L9.67432014,12.6543877 L9.65217073,12.5980381 L9.62968254,12.5420596 L9.60680717,12.4864037 L9.58344783,12.4308932 L9.55968521,12.3757695 L9.53545474,12.3209364 L9.51077259,12.2664421 L9.48947818,12.2206269 L8.69848911,12.5927305 L8.71623445,12.6309313 L8.73752886,12.6779082 L8.75850063,12.7254174 L8.77923044,12.7734748 L8.79965371,12.8220166 L8.81985112,12.8711873 L8.83982271,12.920842 L8.85948777,12.9709322 L8.87892697,13.0215387 L8.89815645,13.0726615 L8.91716012,13.1242683 L8.93595403,13.1763265 L8.95452213,13.228788 L8.97288047,13.2817015 L8.99106139,13.3350665 L8.99927266,13.3596196 L9.82752905,13.0801143 L9.82752696,13.0801146 Z M8.99646374,11.3875146 L8.9695231,11.3521207 L8.93308062,11.3058055 L8.89589607,11.260071 L8.85790492,11.2148848 L8.81910716,11.1702955 L8.77951891,11.1263356 L8.73910794,11.0830207 L8.6978582,11.0403352 L8.65575331,10.998327 L8.61282562,10.9570449 L8.56904318,10.9164565 L8.52437321,10.876594 L8.47886447,10.837522 L8.4324686,10.799192 L8.38513686,10.7616203 L8.33696634,10.7249197 L8.28792468,10.6890418 L8.27882617,10.6826696 L7.78408666,11.4033241 L7.7788921,11.3996944 L7.81399562,11.4253767 L7.8484861,11.451656 L7.88236359,11.4785482 L7.91572482,11.5061019 L7.94858599,11.5343331 L7.98089866,11.5631612 L8.01267897,11.5926185 L8.04402372,11.6227695 L8.0748361,11.6535173 L8.10518063,11.6849105 L8.13510574,11.7169973 L8.16456302,11.7496971 L8.19358473,11.7830583 L8.22218698,11.817081 L8.25040209,11.8517812 L8.27819773,11.8871266 L8.30513837,11.9225206 L8.99646657,11.3875143 L8.99646374,11.3875146 Z M7.37286257,10.238956 L7.31691652,10.2220656 L7.25179112,10.2037395 L7.18584292,10.1864943 L7.11887853,10.1702815 L7.05110733,10.1552141 L6.98244901,10.1411952 L6.91288717,10.1282734 L6.84242183,10.1164324 L6.77102101,10.1057046 L6.69878142,10.0960576 L6.62554161,10.0875237 L6.55146304,10.0801029 L6.47640023,10.073763 L6.41842138,10.0697945 L6.36528216,10.9423168 L6.40980667,10.9453819 L6.47115699,10.9505603 L6.53139441,10.9565938 L6.59040585,10.9634822 L6.64832036,10.9711933 L6.70507322,10.9797272 L6.76072916,10.9890839 L6.81528819,10.9991987 L6.86874989,11.0101201 L6.92119539,11.0217998 L6.97247923,11.0342054 L7.02287595,11.0473853 L7.07219174,11.061259 L7.12813779,11.0781493 L7.37286216,10.2389566 L7.37286257,10.238956 Z" id="_213364416"></path>
                        <path d="M13.8077379,11.1614784 C14.4822374,10.3976397 15.4172066,9.92514589 16.4527135,9.92514589 C17.4881549,9.92514589 18.423124,10.3976397 19.0976072,11.1614948 C19.7596214,11.9112214 20.1691193,12.942012 20.1691193,14.0760694 C20.1691193,14.526252 20.1038325,14.9621588 19.9832609,15.372382 C19.8584144,15.797172 19.6740401,16.1915213 19.4413667,16.5430101 L16.816379,20.5064661 L16.4527287,21.0555556 L16.0890459,20.5064661 L13.4640418,16.5430101 C13.2313196,16.1915717 13.046947,15.7972376 12.9220657,15.3724312 C12.8014781,14.9622079 12.7361913,14.5262684 12.7361913,14.0760694 C12.7361913,12.9419793 13.1457052,11.9112009 13.8077362,11.1614784 L13.8077379,11.1614784 Z M16.4526971,16.4785964 C15.8435332,16.4785964 15.2944928,16.2017853 14.8993486,15.7543443 C14.5166946,15.3210027 14.2799736,14.7273071 14.2799736,14.076053 C14.2799736,13.4247662 14.5166803,12.8310542 14.8993486,12.3977002 C15.2944727,11.9502425 15.8434963,11.6734317 16.4526971,11.6734317 C17.0618446,11.6734317 17.6108891,11.9502429 18.00598,12.3977166 C18.388634,12.8310583 18.6253428,13.4247703 18.6253428,14.076053 C18.6253428,14.7273071 18.3886361,15.3210191 18.00598,15.7543607 C17.6108719,16.2018021 17.0618774,16.4785964 16.4526971,16.4785964 L16.4526971,16.4785964 Z" id="_213364680"></path>
                    </g>
                </g>
            </g>
        </g>
    </g>
</svg>