<?xml version="1.0" encoding="UTF-8"?>
<svg width="16px" height="21px" viewBox="0 0 16 21" version="1.1" xmlns="http://www.w3.org/2000/svg" xmlns:xlink="http://www.w3.org/1999/xlink">
    <!-- Generator: Sketch 46.2 (44496) - http://www.bohemiancoding.com/sketch -->
    <title>police</title>
    <desc>Created with Sketch.</desc>
    <defs></defs>
    <g id="Page-1" stroke="none" stroke-width="1" fill="none" fill-rule="evenodd">
        <g id="Artboard-Copy-7" transform="translate(-505.000000, -310.000000)" fill="#4C4C4C">
            <path d="M519.914667,312.518091 C513.913667,312.518091 512.893667,310.215727 512.884222,310.192818 C512.840778,310.080182 512.733111,310.003818 512.610333,310 L512.606556,310 C512.485667,310 512.374222,310.078273 512.328889,310.187091 C512.321333,310.211909 511.284333,312.518091 505.298444,312.518091 C505.134111,312.518091 505,312.655545 505,312.823545 L505,323.147909 C505,327.374636 512.181556,330.604818 512.485667,330.740364 C512.527222,330.759455 512.565,330.765182 512.610333,330.765182 C512.646222,330.765182 512.687778,330.759455 512.725556,330.740364 C513.033444,330.604818 520.215,327.374636 520.215,323.147909 L520.215,312.823545 C520.215,312.655545 520.082778,312.518091 519.914667,312.518091" id="police"></path>
        </g>
    </g>
</svg>