<?xml version="1.0" encoding="UTF-8"?>
<svg width="16px" height="12px" viewBox="0 0 16 12" version="1.1" xmlns="http://www.w3.org/2000/svg" xmlns:xlink="http://www.w3.org/1999/xlink">
    <!-- Generator: Sketch 46.2 (44496) - http://www.bohemiancoding.com/sketch -->
    <title>dinner</title>
    <desc>Created with Sketch.</desc>
    <defs></defs>
    <g id="Symbols" stroke="none" stroke-width="1" fill="none" fill-rule="evenodd">
        <g id="rest" transform="translate(-24.000000, -10.000000)" fill="#FFFFFF">
            <g id="dinner" transform="translate(24.000000, 10.000000)">
                <polygon id="Fill-1" points="1.77635684e-15 11.6271929 15.9670019 11.6271929 15.9670019 10 1.77635684e-15 10"></polygon>
                <path d="M15.5541988,8.45633967 C15.5131228,6.65129348 14.7608109,4.9599837 13.4243587,3.6791712 C12.294347,2.59614946 10.8580897,1.91349185 9.302846,1.70452174 C9.40421053,1.53719022 9.46253411,1.34310598 9.46253411,1.1361087 C9.46253411,0.50967663 8.93076023,0 8.27709942,0 C7.6234386,0 7.09166472,0.509646739 7.09166472,1.1361087 C7.09166472,1.34310598 7.1499883,1.53719022 7.25135283,1.70452174 C5.69607797,1.91349185 4.25982066,2.59614946 3.12984016,3.6791712 C1.79338791,4.9599837 1.04107602,6.65132337 1,8.45633967 L15.5541988,8.45633967" id="Fill-3"></path>
            </g>
        </g>
    </g>
</svg>