<?xml version="1.0" encoding="UTF-8"?>
<svg width="22px" height="13px" viewBox="0 0 22 13" version="1.1" xmlns="http://www.w3.org/2000/svg" xmlns:xlink="http://www.w3.org/1999/xlink">
    <!-- Generator: Sketch 46.2 (44496) - http://www.bohemiancoding.com/sketch -->
    <title>russian-kitchen</title>
    <desc>Created with Sketch.</desc>
    <defs></defs>
    <g id="Symbols" stroke="none" stroke-width="1" fill="none" fill-rule="evenodd">
        <g id="russian" transform="translate(-14.000000, -11.000000)" fill="#FFFFFF">
            <path d="M32.7933142,11.0710783 C31.0212336,11.0617472 29.5910443,12.4555535 29.5530861,14.2270211 L29.5520156,14.2270211 L29.5520156,15.7672219 C29.5520156,16.6460356 29.1140469,17.5837374 28.2584936,18.1595827 C27.4028956,18.7355173 26.4677684,18.6626548 25.136199,18.6730127 C23.8306784,18.6832367 22.6935387,18.5977394 21.8379853,18.0218495 C20.9823874,17.4459596 20.4532031,16.6503216 20.4532031,15.771508 C20.4532031,15.4131338 20.4508391,14.8177335 20.4479844,14.2382719 L20.4474938,14.2382719 C20.447583,14.2155917 20.4478952,14.1929115 20.4474938,14.1700973 C20.4168507,12.3918436 18.9834944,10.9907153 17.2066858,11.0000463 C15.4340699,11.0093774 14,12.4505532 14,14.2270211 C14,14.6021376 14.6881537,15.6070764 15.3084199,16.1951994 C15.7056203,16.5718784 16.3225857,17.0256166 16.7653271,17.2724202 C16.9710417,17.387116 17.2239922,17.2392035 17.2239922,17.0034722 L17.2239922,15.7539174 C17.2239922,15.6003349 17.122473,15.4642982 16.9746101,15.4233578 C16.530932,15.300581 16.2153572,15.0194892 16.2153572,15.0194892 L16.2205759,15.0167658 C16.0030858,14.7921067 15.8658387,14.4642258 15.8658387,14.0988422 C15.8658387,13.4214717 16.3370375,12.8722801 16.918275,12.8722801 C17.499557,12.8722801 17.9707559,13.4214717 17.9707559,14.0988422 C17.9707559,14.1003155 17.9706667,14.1016995 17.9706667,14.1031729 L17.9789184,14.0988422 L17.9789184,14.2383166 L17.9707559,14.2383166 C17.9707559,14.2383166 17.9920767,17.6557516 17.9920767,18.9595067 C17.9920767,20.2633065 18.7771553,21.4436152 20.0464573,22.2980074 C21.3157147,23.1523996 23.0692399,23.6808308 25.0060885,23.6808308 C26.9429816,23.6808308 28.6964623,23.1523996 29.9657196,22.2980074 C31.2350216,21.4436152 32.0201003,20.2633065 32.0201003,18.9595067 L32.0201003,15.4030438 L32.0211262,15.4030438 L32.0211262,14.1698741 L32.0293333,14.1741601 C32.0293333,14.1727315 32.0292441,14.1713028 32.0292441,14.1698741 C32.0292441,13.492459 32.5004876,12.9433121 33.081725,12.9433121 C33.6629625,12.9433121 34.134206,13.492459 34.134206,14.1698741 C34.134206,14.5352131 33.9969142,14.863094 33.7794241,15.0877977 L33.7846874,15.0905211 C33.7846874,15.0905211 33.469068,15.3716129 33.0253899,15.4943897 C32.877527,15.5352855 32.7760078,15.6713668 32.7760078,15.8249047 L32.7760078,17.0745041 C32.7760078,17.3101908 33.0289583,17.458148 33.2347175,17.3434075 C33.6773696,17.0966039 34.2943797,16.6428657 34.6916247,16.2661866 C35.3118463,15.6780637 36,14.6731248 36,14.298053 C36,12.5215851 34.5658855,11.0804093 32.7933142,11.0710783" id="russian-kitchen"></path>
        </g>
    </g>
</svg>