<?xml version="1.0" encoding="UTF-8"?>
<svg width="18px" height="18px" viewBox="0 0 18 18" version="1.1" xmlns="http://www.w3.org/2000/svg" xmlns:xlink="http://www.w3.org/1999/xlink">
    <!-- Generator: Sketch 46.2 (44496) - http://www.bohemiancoding.com/sketch -->
    <title>search</title>
    <desc>Created with Sketch.</desc>
    <defs></defs>
    <g id="Symbols" stroke="none" stroke-width="1" fill="none" fill-rule="evenodd">
        <g id="Icons" transform="translate(-313.000000, -961.000000)" fill="#D95E5B">
            <path d="M329.909467,977.385368 L325.676637,972.932421 C326.764972,971.623789 327.361277,969.977263 327.361277,968.263158 C327.361277,964.258316 324.13998,961 320.180639,961 C316.221297,961 313,964.258316 313,968.263158 C313,972.268 316.221297,975.526316 320.180639,975.526316 C321.667031,975.526316 323.08349,975.072842 324.29452,974.212 L328.559507,978.698737 C328.737775,978.886 328.977545,978.989263 329.234487,978.989263 C329.477693,978.989263 329.70841,978.895474 329.883555,978.724947 C330.255699,978.362737 330.267563,977.762105 329.909467,977.385368 Z M320.180639,962.894737 C323.107217,962.894737 325.488067,965.302947 325.488067,968.263158 C325.488067,971.223368 323.107217,973.631579 320.180639,973.631579 C317.25406,973.631579 314.87321,971.223368 314.87321,968.263158 C314.87321,965.302947 317.25406,962.894737 320.180639,962.894737 Z" id="search"></path>
        </g>
    </g>
</svg>