<?xml version="1.0" encoding="UTF-8"?>
<svg width="15px" height="17px" viewBox="0 0 15 17" version="1.1" xmlns="http://www.w3.org/2000/svg" xmlns:xlink="http://www.w3.org/1999/xlink">
    <!-- Generator: Sketch 46.2 (44496) - http://www.bohemiancoding.com/sketch -->
    <title>shopping</title>
    <desc>Created with Sketch.</desc>
    <defs></defs>
    <g id="Page-1" stroke="none" stroke-width="1" fill="none" fill-rule="evenodd" fill-opacity="0.7">
        <g id="Artboard-Copy-5" transform="translate(-75.000000, -448.000000)" fill="#000000">
            <g id="shopping" transform="translate(75.000000, 448.000000)">
                <path d="M4.97915984,4.07391643 L4.97915984,5.79183873 C4.76622852,5.92622689 4.62501519,6.16184029 4.62501519,6.43008954 C4.62501519,6.84800136 4.96771881,7.18677395 5.3904668,7.18677395 C5.81322796,7.18677395 6.15593159,6.84800136 6.15593159,6.43008954 C6.15593159,6.13545902 5.98556571,5.88017368 5.73692039,5.75519917 L5.73692039,4.07391643 L9.48019956,4.07391643 L9.48019956,5.82282339 C9.2928257,5.96075107 9.17146018,6.18139789 9.17146018,6.43008954 C9.17146018,6.84800136 9.5141638,7.18677395 9.93691178,7.18677395 C10.359673,7.18677395 10.7023766,6.84800136 10.7023766,6.43008954 C10.7023766,6.11783796 10.5110458,5.84981771 10.2379571,5.73423111 L10.2379571,4.07391643 L12.8119052,4.07391643 C13.07481,4.07391643 13.306476,4.16965161 13.4806683,4.32423842 C13.6628008,4.48753303 13.7798334,4.7130269 13.8016155,4.95960449 L14.7812964,16.0436572 C14.7833722,16.0670491 14.7843841,16.0898769 14.7843841,16.1120759 C14.7843841,16.3564984 14.6717236,16.5731291 14.4934182,16.7315509 C14.3327304,16.8743263 14.1155314,16.9696637 13.8840615,16.9896445 C13.8530682,16.9923248 13.8221787,16.993697 13.7915875,16.993697 L1.30040293,16.993697 C1.26981182,16.993697 1.23893541,16.9923248 1.20789008,16.9896445 C0.976445852,16.9696639 0.759271271,16.8743263 0.598572929,16.7315639 C0.420267529,16.5731425 0.307594157,16.3565492 0.307594157,16.1120889 C0.307594157,16.0898897 0.308619051,16.0670491 0.310694784,16.0436572 L1.2903757,4.95960449 C1.31227469,4.71170634 1.42906061,4.48594503 1.61129721,4.32423976 C1.78552905,4.16962721 2.01718022,4.07391776 2.28008663,4.07391776 L4.97915984,4.07391643 Z" id="_392195984"></path>
                <path d="M5.15674952,6.37636477 L5.55935048,6.37636477 L5.55935048,2.23978861 C5.55935048,1.83413776 5.72312591,1.44863084 6.01298793,1.16208135 C6.30285126,0.875555964 6.69284271,0.713660454 7.10319076,0.713660454 L8.11392919,0.713660454 C8.52428712,0.713660454 8.91428055,0.875557267 9.20414191,1.16208135 C9.49400525,1.44863247 9.65777935,1.83413776 9.65777935,2.23978861 L9.65777935,6.37636477 L10.0603803,6.37636477 L10.0603803,2.23978861 C10.0603803,1.72805307 9.85449354,1.24228576 9.4887375,0.880747003 C9.12300683,0.519198474 8.63161597,0.315674327 8.1139259,0.315674327 L7.10318746,0.315674327 C6.58551387,0.315674327 6.09412301,0.519199451 5.72837586,0.880747003 C5.36263201,1.2422825 5.15674622,1.72804982 5.15674622,2.23978861 L5.15674622,6.37636477 L5.15674952,6.37636477 Z" id="_392195864"></path>
                <ellipse id="_392195912" cx="5.38988684" cy="6.43555225" rx="1" ry="1"></ellipse>
                <ellipse id="_392195312" cx="9.86368492" cy="6.43555225" rx="1" ry="1"></ellipse>
            </g>
        </g>
    </g>
</svg>