<?xml version="1.0" encoding="UTF-8"?>
<svg width="12px" height="17px" viewBox="0 0 12 17" version="1.1" xmlns="http://www.w3.org/2000/svg" xmlns:xlink="http://www.w3.org/1999/xlink">
    <!-- Generator: Sketch 46.2 (44496) - http://www.bohemiancoding.com/sketch -->
    <title>souvenir</title>
    <desc>Created with Sketch.</desc>
    <defs></defs>
    <g id="Symbols" stroke="none" stroke-width="1" fill="none" fill-rule="evenodd">
        <g id="souvenirs" transform="translate(-26.000000, -8.000000)" fill="#FFFFFF">
            <g id="souvenir" transform="translate(26.000000, 8.000000)">
                <path d="M9.56761722,11.7739024 L7.41485167,12.9394613 C7.21590431,13.0470135 6.97573206,13.0471279 6.77672727,12.9394613 L4.62419139,11.7739024 L2.47119617,12.9395185 C2.27196172,13.0471852 2.03213397,13.0471852 1.83278469,12.9395185 L0.0947368421,11.9983939 C0.570143541,14.833101 3.03399043,17 5.9929378,17 C8.62656459,17 10.8676938,15.2845455 11.6646316,12.9092391 L9.56761722,11.7739024 Z" id="Shape"></path>
                <path d="M11.9750239,11.0003165 C11.9750239,10.6810943 11.9616459,10.3532862 11.9361531,10.0199832 C11.8376268,10.0742458 11.7260096,10.104468 11.6123828,10.104468 C11.4358852,10.104468 11.2642679,10.0330909 11.1399617,9.90882492 C11.0149665,9.7846734 10.9441148,9.61267003 10.9441148,9.43683165 C10.9441148,9.26064983 11.0149665,9.08910438 11.1399617,8.96438047 C11.2642679,8.84011448 11.4358278,8.76925253 11.6123828,8.76925253 C11.6733014,8.76925253 11.7335311,8.77823906 11.7917512,8.79460943 C11.7124593,8.29113468 11.6084785,7.78216498 11.4817033,7.27651515 L9.63215311,6.17775421 L7.72616268,7.30977104 C7.51555981,7.43483838 7.25333971,7.43483838 7.04302392,7.30977104 L5.13732057,6.17775421 L3.23092823,7.30988552 C3.02049761,7.43478114 2.75816268,7.43489562 2.54784689,7.30988552 L0.789473684,6.26544444 C0.640880383,6.7393266 0.511578947,7.22093603 0.40323445,7.70340404 C0.47908134,7.73637374 0.54907177,7.78302357 0.608210526,7.84220875 C0.732401914,7.96641751 0.803885167,8.13790572 0.803885167,8.31414478 C0.803885167,8.48952525 0.732401914,8.66181481 0.608210526,8.78619529 C0.490966507,8.90307744 0.331464115,8.9723367 0.166507177,8.98000673 C0.0940478469,9.47546801 0.0463923445,9.96423232 0.0249186603,10.4384579 L2.15184689,11.5902222 L4.30495694,10.4245488 C4.50396172,10.3168249 4.74407656,10.3168249 4.94319617,10.4245488 L7.09561722,11.5902222 L9.24821053,10.4245488 C9.44733014,10.3169394 9.68738756,10.3168249 9.88673684,10.4245488 L11.9502201,11.5419125 C11.9662967,11.3635556 11.9750239,11.1826229 11.9750239,11.0003165 Z M2.9036555,9.90876768 C2.77957895,10.0330337 2.60692823,10.1044108 2.43123445,10.1044108 C2.25542584,10.1044108 2.08283254,10.0330337 1.95864115,9.90876768 C1.83456459,9.78461616 1.76285167,9.61261279 1.76285167,9.43677441 C1.76285167,9.26059259 1.83456459,9.08841751 1.95864115,8.96432323 C2.08283254,8.84005724 2.25548325,8.76919529 2.43123445,8.76919529 C2.60692823,8.76919529 2.77952153,8.84005724 2.9036555,8.96432323 C3.02790431,9.08904714 3.09944498,9.26059259 3.09944498,9.43677441 C3.09944498,9.61267003 3.02790431,9.78392929 2.9036555,9.90876768 Z M5.19904306,8.78619529 C5.07496651,8.91017508 4.90248804,8.98166667 4.72679426,8.98166667 C4.55035407,8.98166667 4.37862201,8.91017508 4.25414354,8.78619529 C4.12937799,8.66181481 4.05864115,8.48952525 4.05864115,8.31414478 C4.05864115,8.13859259 4.12937799,7.96641751 4.25414354,7.84220875 C4.37862201,7.71737037 4.55104306,7.64668013 4.72679426,7.64668013 C4.90248804,7.64668013 5.0742201,7.71737037 5.19904306,7.84220875 C5.3234067,7.96641751 5.39511962,8.13859259 5.39511962,8.31414478 C5.39511962,8.48952525 5.3234067,8.66112795 5.19904306,8.78619529 Z M7.49391388,9.90876768 C7.36949282,10.0330337 7.1978756,10.1044108 7.02149282,10.1044108 C6.84579904,10.1044108 6.67332057,10.0330337 6.54901435,9.90876768 C6.42465072,9.78387205 6.3532823,9.61261279 6.3532823,9.43677441 C6.3532823,9.26059259 6.42465072,9.08904714 6.54901435,8.96432323 C6.67332057,8.84005724 6.84579904,8.76919529 7.02149282,8.76919529 C7.19724402,8.76919529 7.36949282,8.84005724 7.49391388,8.96432323 C7.6182201,9.08904714 7.68976077,9.26059259 7.68976077,9.43677441 C7.68981818,9.61267003 7.61827751,9.78392929 7.49391388,9.90876768 Z M9.7895311,8.78619529 C9.66505263,8.91017508 9.49280383,8.98166667 9.31705263,8.98166667 C9.14107177,8.98166667 8.96876555,8.91017508 8.84457416,8.78619529 C8.72026794,8.66112795 8.64872727,8.48952525 8.64872727,8.31414478 C8.64872727,8.13859259 8.72026794,7.96641751 8.84457416,7.84220875 C8.96876555,7.71794276 9.14107177,7.64668013 9.31705263,7.64668013 C9.49280383,7.64668013 9.66505263,7.71794276 9.7895311,7.84220875 C9.91366507,7.96641751 9.98520574,8.13859259 9.98520574,8.31414478 C9.98520574,8.48952525 9.91366507,8.66112795 9.7895311,8.78619529 Z" id="Shape"></path>
                <path d="M1.24696651,4.98380471 L2.88930144,5.95950168 L4.79569378,4.82719865 C5.0061244,4.70224579 5.26822967,4.70236027 5.4787177,4.82731313 L7.38465072,5.95944444 L9.29058373,4.82731313 C9.50112919,4.70230303 9.76311962,4.70224579 9.97372249,4.82731313 L10.890488,5.37188552 C10.6591005,4.7529596 10.3955598,4.15675758 10.1039426,3.60130976 C8.90216268,1.31254882 7.40388517,0 5.9929378,0 C4.58262201,0 3.08445933,1.31254882 1.88290909,3.60130976 C1.65266986,4.03958923 1.44005742,4.50379798 1.24696651,4.98380471 Z" id="Shape"></path>
            </g>
        </g>
    </g>
</svg>